EBGaramond12-AllSC.sfdir

StartChar: percent
Encoding: 37 37 1006
Width: 735
VWidth: 0
Flags: W
HStem: -14 24<530.305 578.079> 268 24<163.305 211.079> 321 27<524.67 573.969> 603 27<157.67 206.969> 635 20G<578.5 591>
VStem: 49 70<343.487 542.903> 249 70<353.941 557.256> 416 70<61.4874 260.903> 616 70<71.9407 275.256>
LayerCount: 2
Fore
SplineSet
550 321 m 0
 510 321 485 238 486 177 c 24
 487 107 509 10 554 10 c 0
 599 10 617 100 616 165 c 24
 615 231 590 321 550 321 c 0
561 348 m 16
 644 348 686 262 686 177 c 0
 686 83 638 -14 543 -14 c 8
 457 -14 416 74 416 166 c 0
 416 252 470 348 561 348 c 16
183 603 m 0
 143 603 118 520 119 459 c 24
 120 389 142 292 187 292 c 0
 232 292 250 382 249 447 c 24
 248 513 223 603 183 603 c 0
194 630 m 16
 277 630 319 544 319 459 c 0
 319 365 271 268 176 268 c 8
 90 268 49 356 49 448 c 0
 49 534 103 630 194 630 c 16
136 -11 m 26
 548 638 l 26
 557 652 570 655 587 655 c 24
 595 655 604 645 600 638 c 26
 188 -11 l 26
 180 -24 167 -26 152 -26 c 24
 143 -26 131 -18 136 -11 c 26
EndSplineSet
Validated: 33
EndChar
StartChar: comma
Encoding: 44 44 54
Width: 228
VWidth: 0
Flags: W
HStem: 29 88<50.4428 120.388>
VStem: 128 52<-59.9065 49.1868>
LayerCount: 2
Fore
SplineSet
89 29 m 0
 60 32 42 49 42 71 c 0
 42 98 68 117 97 117 c 0
 145 117 180 76 180 20 c 0
 180 -81 89 -145 38 -147 c 0
 14 -148 11 -128 32 -124 c 0
 75 -115 128 -85 128 -15 c 0
 128 1 111 27 89 29 c 0
EndSplineSet
Validated: 1
EndChar
StartChar: one
Encoding: 49 49 50
Width: 289
VWidth: 0
Flags: W
HStem: -3 25<26.7157 90.5827 198.107 263.756> 384 22<39.4082 89.9044 201.295 250.233>
VStem: 109 73<32.9094 374.434>
LayerCount: 2
Fore
SplineSet
109 68 m 0
 109 153 109 266 109 333 c 0
 109 380 73 380 46 384 c 0
 36 385 37 406 46 406 c 0
 106 406 107 403 146 403 c 24
 184 403 185 406 243 406 c 0
 255 406 253 386 243 384 c 0
 215 378 183 380 182 333 c 0
 180 244 181 115 182 68 c 0
 183 29 209 28 253 22 c 0
 270 20 269 -3 253 -3 c 0
 196 -3 187 2 146 2 c 24
 103 2 90 -3 36 -3 c 0
 24 -3 19 21 36 22 c 0
 63 24 109 27 109 68 c 0
EndSplineSet
Validated: 33
Substitution2: "'tnum' Tabular Numbers lookup 7 subtable" one.taboldstyle
Substitution2: "'lnum' Lining Figures lookup 5 subtable" one.lnum
EndChar
StartChar: colon
Encoding: 58 58 70
Width: 248
VWidth: 0
Flags: W
HStem: -14 110<81.7433 168.257> 263 110<81.7433 168.257>
VStem: 70 110<-2.25671 84.2567 274.743 361.257>
LayerCount: 2
Fore
SplineSet
125 96 m 28
 155.335 96 180 71.335 180 41 c 28
 180 10.665 155.335 -14 125 -14 c 28
 94.665 -14 70 10.665 70 41 c 28
 70 71.335 94.665 96 125 96 c 28
125 373 m 28
 155.335 373 180 348.335 180 318 c 28
 180 287.665 155.335 263 125 263 c 28
 94.665 263 70 287.665 70 318 c 28
 70 348.335 94.665 373 125 373 c 28
EndSplineSet
Validated: 1
EndChar
StartChar: semicolon
Encoding: 59 59 71
Width: 228
VWidth: 0
Flags: W
HStem: 29 88<50.4428 120.388> 263 110<62.7433 149.257>
VStem: 51 110<274.743 361.257> 128 52<-59.9065 49.1868>
LayerCount: 2
Fore
SplineSet
106 373 m 28xe0
 136.335 373 161 348.335 161 318 c 28
 161 287.665 136.335 263 106 263 c 28
 75.665 263 51 287.665 51 318 c 28
 51 348.335 75.665 373 106 373 c 28xe0
89 29 m 0
 60 32 42 49 42 71 c 0
 42 98 68 117 97 117 c 0
 145 117 180 76 180 20 c 0
 180 -81 89 -145 38 -147 c 0
 14 -148 11 -128 32 -124 c 0
 75 -115 128 -85 128 -15 c 0xd0
 128 1 111 27 89 29 c 0
EndSplineSet
Validated: 1
EndChar
StartChar: asciicircum
Encoding: 94 94 89
Width: 500
VWidth: 0
Flags: W
HStem: 284 319
LayerCount: 2
Fore
SplineSet
250 603 m 1
 276 566 408 375 449 305 c 0
 456 294 450 282 441 284 c 0
 429 287 410 295 404 302 c 0
 368 341 284 470 254 514 c 0
 249 520 248 520 244 514 c 0
 214 470 123 332 96 302 c 0
 89 295 71 287 59 284 c 0
 50 282 44 294 51 305 c 0
 89 369 222 564 250 603 c 1
EndSplineSet
Validated: 1
EndChar
StartChar: underscore
Encoding: 95 95 103
Width: 500
VWidth: 0
Flags: W
HStem: -182 50<3.23578 494.448>
LayerCount: 2
Fore
SplineSet
24 -132 m 30
 487 -132 l 30
 494.451 -132 502.524 -138.989 500 -146 c 28
 493.725 -163.433 487.528 -182 469 -182 c 26
 14 -182 l 26
 6.80859 -182 0 -176 0 -170 c 0
 0 -161 6.47168 -132 24 -132 c 30
EndSplineSet
Validated: 1
EndChar

StartChar: a
Encoding: 97 97 0
Width: 555
VWidth: 0
Flags: W
HStem: -3 24<32.5977 66.9577 182.452 212.952 498.912 529.715> 139 27<198.819 333.7> 443 20G<310.5 314>
LayerCount: 2
Fore
SplineSet
270 337 m 4
 253 295 221 224 199 176 c 4
 195 167 200 166 212 166 c 6
 329 166 l 6
 339 166 340 166 337 176 c 4
 330 203 293 306 282 337 c 4
 276 352 276 352 270 337 c 4
37 -3 m 4
 29 -3 31 19 37 21 c 4
 58 28 74.5889 34.3388 94 50 c 28
 109.845 62.7832 116.277 73.6046 125 92 c 28
 173.798 194.907 193 243 241 360 c 4
 243 366 245.872 375.717 248 386 c 28
 250.56 398.369 252 417 253 418 c 4
 262 420 292 442 298 449 c 4
 306 458 309 463 312 463 c 4
 316 463 317 460 319 454 c 4
 367 323 397 232 444 107 c 4
 452 84 461 69 479 50 c 4
 491 37 507 25 524 21 c 4
 531 19 536 -3 524 -3 c 12
 486.509 -3 466 2 428 2 c 12
 387.394 2 357 -3 324 -3 c 12
 314.632 -3 319 20 325 21 c 4
 341 24 355.11 31.9871 365 48 c 28
 373.413 61.6201 370 76 367 89 c 4
 362 114 363 105 353 132 c 4
 351 138 348 139 334 139 c 6
 192 139 l 14
 185.382 139 184 136 180 127 c 4
 168 96 167.465 101.555 164 84 c 28
 161.507 71.3682 161 58 165 51 c 4
 176 34 194 24 207 21 c 4
 216 19 216 -3 207 -3 c 4
 167 -3 146.659 2 108 2 c 28
 80.2412 2 64 -3 37 -3 c 4
EndSplineSet
Validated: 545
EndChar

StartChar: e
Encoding: 101 101 13
Width: 421
VWidth: 0
Flags: W
HStem: -3 24<11.2984 48.228> 3 36<164.786 334.559> 410 41<161.645 328.992> 429 21<22.3123 57.3167>
VStem: 79 75<45.5227 217.677 253 406.614> 347 19<347.096 375.298>
LayerCount: 2
Fore
SplineSet
257 216 m 0x2c
 229 220 204.145 222.149 171 217 c 24
 161.735 215.561 154 212 154 200 c 0
 154 158 155 129 156 90 c 0
 157 62 169 39 199 39 c 0
 202 39 277 39 287 39 c 0
 290 39 326 44 335 51 c 0
 347 61 362 86 367 97 c 0
 370 103 375.55 104.269 382 104 c 24
 386.692 103.805 391 101 391 96 c 0
 388 69 380 32 374 10 c 0
 373 4 372 -2 365 -2 c 8
 270.21 -2 190 3 122 3 c 0x6c
 88 3 15 -3 15 -3 c 0
 10 -3 9 20 15 21 c 0
 37 27 45.6496 28.9949 60 42 c 24
 72.0195 52.8926 79 62 79 79 c 0
 79 180 79 252 79 357 c 0
 79 376 78 399 70 407 c 0
 57 422 54 421 27 429 c 0
 21 430 18.8096 450 27 450 c 16x9c
 56 450 76.4004 447.9 108 448 c 24
 199.657 448.29 325 452 343 451 c 0
 347 451 354 450 355 445 c 0
 360 419 366 377 366 353 c 0
 366 349 359 347 355 347 c 0
 350 347 349 349 347 354 c 0
 342 369 334 385 327 392 c 0
 315 406 302 410 285 410 c 0
 252 410 198 410 179 410 c 0
 171 410 163 401 162 392 c 0
 161 386 157 358 156 339 c 0
 155 306 154 302 154 268 c 0
 154 261 155 253 161 253 c 0
 190 253 232 253 248 253 c 0
 259 253 270 256 278 263 c 0
 284 269 287 272 290 281 c 0
 292 284 301 294 304 294 c 0
 308 294 314 289 313 283 c 0
 310 248 311 217 313 182 c 0
 314 176 313 170 307 170 c 8
 296.793 170 291 185 289 189 c 0
 283 210 268 214 257 216 c 0x2c
EndSplineSet
Validated: 33
EndChar

StartChar: f
Encoding: 102 102 18
Width: 379
VWidth: 0
Flags: W
HStem: -3 30<185.724 227.063> 212 35<158.005 280.438> 413 39<164.053 315.388> 423 27<26.4005 66.0696>
VStem: 83 75<46.13 212.528 247.006 394.663>
LayerCount: 2
Fore
SplineSet
224 -3 m 0xe8
 186 -3 199 2 130 2 c 0
 96 2 28 -4 28 -4 c 0
 23 -4 22 26 28 27 c 0
 50 33 57 36 70 49 c 0
 78 56 83 71 83 89 c 0
 83 191 83 244 83 350 c 4
 83 370 82 393 74 402 c 4
 61 416 58 415 31 423 c 4
 25 425 20.4697 450 31 450 c 20xd8
 60 450 71.249 447.832 97 448 c 28
 190.611 448.612 319 452 337 452 c 4
 342 452 349 450 350 445 c 4
 355 419 353 384 354 359 c 4
 354 355 347 353 343 353 c 4
 338 353 333 355 332 360 c 4
 327 375 322 387 316 394 c 4
 303 408 287 413 269 413 c 4
 237 413 201 413 181 413 c 4
 174 413 165 403 164 395 c 4
 163 388 161 369 160 350 c 4
 159 316 158 297 158 263 c 0
 158 255 158 247 165 247 c 0
 194 247 229 249 245 249 c 0
 256 249 267 252 276 260 c 0
 282 265 284 268 287 276 c 0
 289 280 301 288 305 288 c 0
 308 288 314 283 314 277 c 0
 310 241 312 217 314 182 c 0
 314 176 313 170 308 170 c 8
 297.704 170 288 181 287 186 c 0
 280 207 265 212 254 213 c 0
 225 215 205 215 174 212 c 0
 165 212 158 207 158 195 c 0
 158 153 159 128 160 89 c 0
 161 61 168 59 179 47 c 0
 188 37 215 29 224 27 c 0
 228 26 231 -3 224 -3 c 0xe8
EndSplineSet
Validated: 33
EndChar
StartChar: g
Encoding: 103 103 25
Width: 507
VWidth: 0
Flags: W
HStem: -12 36<204.672 351.615> 178 34<300.377 373.835 453.411 491.445> 422 32<207.383 359.691>
VStem: 20 84<132.931 310.158> 381 75<45.6252 162.706> 381 62<52.1408 156.612>
LayerCount: 2
Fore
SplineSet
272 24 m 0xf8
 307 24 348 39 360 46 c 0
 377 57 381 78 381 102 c 0xf8
 381 123 385 149 379 157 c 0
 366 172 326 178 312 178 c 0
 305 178 300 194 298 204 c 0
 298 207 298 212 301 212 c 8
 341.577 212 367 209 405 209 c 8
 435.43 209 458 211 483 211 c 8
 487.219 211 492 209 492 205 c 8
 492 194.122 490 180 485 178 c 0
 465 172 448 163 446 145 c 0
 443 117 442.662 101.713 443 74 c 24xf4
 443.056 69.4355 444.678 66.9298 447 63 c 24
 449.82 58.2275 456 55 456 52 c 0
 456 48 451.63 42.0363 446 39 c 24
 416.34 23.0039 399.353 13.4285 367 4 c 24
 330.56 -6.62012 297 -12 271 -12 c 8
 137.169 -12 20 88.1689 20 222 c 16
 20 357 151.167 454 290 454 c 0
 341 454 373.3 450 404 440 c 0
 416.786 435.835 426 432 429 420 c 4
 436.101 391.6 442 360 442 342 c 0
 442 335 437 328 431 328 c 8
 417.151 328 404 339 401 347 c 0
 396 361 389 379 378 393 c 0
 369 403 341 423 275 422 c 8
 177.047 420.516 104 342 104 238 c 0
 104 130 167 24 272 24 c 0xf8
EndSplineSet
Validated: 33
EndChar
StartChar: y
Encoding: 121 121 24
Width: 494
VWidth: 0
Flags: W
HStem: -4 27<127.655 172.989 302.406 347.107> 426 24<23.6411 60.8134 166.547 201.245 302.585 337.089 417.265 457.175>
VStem: 200 75<47.4598 248.634>
LayerCount: 2
Fore
SplineSet
30 426 m 0
 22 427 17.5674 450 27 450 c 16
 59 450 78.2305 448 111 448 c 24
 144.549 448 158 450 197 450 c 0
 204 450 204 429 197 428 c 0
 168 424 155 412 170 385 c 0
 206 323 213 319 240 279 c 0
 263 245 253 247 277 279 c 0
 300 311 326 349 343 382 c 0
 355 406 333 423 307 427 c 0
 299 428 299.607 451 309 451 c 16
 342 451 352.92 451 381 451 c 16
 412 451 424 452 455 452 c 8
 463.19 452 460 432 455 431 c 0
 415 425 384 382 370 361 c 0
 338 308 328 303 294 246 c 0
 276 216 274 219 275 193 c 0
 276 160 274 112 275 82 c 0
 275 68 277.218 56.787 288 47 c 24
 304.539 31.9883 319 27 340 23 c 0
 352 20 351 -4 340 -4 c 0
 301 -4 279.681 2 241 2 c 24
 199.204 2 171 -4 134 -4 c 0
 126 -4 122 20 134 23 c 0
 155 27 170.083 31.8775 187 47 c 24
 197.855 56.7041 200 68 200 82 c 0
 200 189 200 158 200 193 c 0
 200 220 191 229 188 235 c 0
 158 289 146 309 110 359 c 4
 98 375 70 424 30 426 c 0
EndSplineSet
Validated: 33
EndChar
StartChar: brokenbar
Encoding: 166 166 107
Width: 260
VWidth: 0
Flags: W
HStem: -290 21G<109 116.5> 276 21G<109 116.5> 685 20G<143 149.5>
VStem: 100 60<-286.158 171.668 282.519 698.038>
LayerCount: 2
Fore
SplineSet
112 276 m 0
 106 276 100 289 100 299 c 2
 100 674 l 10
 100 695.634 140 705 146 705 c 0
 153 705 160 699.451 160 692 c 18
 160 297 l 2
 160 287 121 276 112 276 c 0
146 179 m 4
 153 179 160 167 160 157 c 6
 160 -266 l 14
 160 -286.93 121 -290 112 -290 c 4
 106 -290 100 -283.191 100 -276 c 22
 100 156 l 6
 100 166 140 179 146 179 c 4
EndSplineSet
Validated: 1
EndChar

StartChar: dieresis
Encoding: 168 168 72
Width: 0
VWidth: 0
Flags: W
HStem: 494 100<-305.298 -226.702 -128.298 -49.7018>
VStem: -316 100<504.702 583.298> -139 100<504.702 583.298>
LayerCount: 2
Fore
SplineSet
-89 594 m 4
 -64 594 -39 569 -39 544 c 4
 -39 519 -64 494 -89 494 c 4
 -114 494 -139 519 -139 544 c 4
 -139 569 -114 594 -89 594 c 4
-266 594 m 4
 -241 594 -216 569 -216 544 c 4
 -216 519 -241 494 -266 494 c 4
 -291 494 -316 519 -316 544 c 4
 -316 569 -291 594 -266 594 c 4
EndSplineSet
Validated: 1
EndChar

StartChar: paragraph
Encoding: 182 182 1016
Width: 586
VWidth: 0
Flags: W
HStem: -287 25<282.701 358.663> -227 87<280.907 348.656> 600 43<467.275 556.97> 607 38<340.126 539.222>
VStem: 47 402<276.875 460.722> 232 36<-252.128 -215.519> 394 55<-222.353 119.062>
LayerCount: 2
Fore
SplineSet
268 -218 m 8xd6
 268 -242.268 287.753 -260.989 312 -262 c 16
 360 -264 394 -227.77 394 -180 c 0
 394 -94.95 394 -12.87 394 94 c 0xd6
 394 104.05 391.65 119 381 119 c 8
 218.99 119 47 203.99 47 366 c 8
 47 551.747 247.253 645 433 645 c 16xd8
 482.01 645 493.77 644.685 542 643 c 8
 552.059 642.648 557 631 557 622 c 0
 557 613 546.616 600 539 600 c 0xe8
 533 600 472 607 467 607 c 0
 457 607 449 598.06 449 589 c 8
 449 294.55 449 -15.9502 449 -166 c 0
 449 -210 392.06 -287 320 -287 c 8
 273.354 -287 232 -252.646 232 -206 c 16
 232 -167.99 264.479 -140 302 -140 c 16
 329.02 -140 356 -156.98 356 -184 c 12
 356 -205.623 339 -227 321 -227 c 0
 293 -227 268 -190 268 -218 c 8xd6
EndSplineSet
Validated: 33
EndChar
StartChar: guillemotright
Encoding: 187 187 116
Width: 676
VWidth: 0
Flags: W
LayerCount: 2
Fore
SplineSet
257 217 m 0
 213 251 161 291 105 376 c 0
 98 387 98 402 107 400 c 0
 119 397 128 388 135 382 c 0
 204 316 259 279 361 218 c 0
 369 213 359 188 346 182 c 0
 287 155 210 104 141 37 c 0
 134 31 125 22 113 19 c 0
 104 17 98 29 105 40 c 0
 161 125 213 169 257 203 c 0
 265 209 265 211 257 217 c 0
469 217 m 0
 425 251 373 291 317 376 c 0
 310 387 310 402 319 400 c 0
 331 397 340 388 347 382 c 0
 416 316 471 279 573 218 c 0
 581 213 571 188 558 182 c 0
 499 155 422 104 353 37 c 0
 346 31 337 22 325 19 c 0
 316 17 310 29 317 40 c 0
 373 125 425 169 469 203 c 0
 477 209 477 211 469 217 c 0
EndSplineSet
Validated: 33
EndChar
StartChar: ccedilla
Encoding: 231 231 160
Width: 429
VWidth: 0
Flags: W
HStem: -286.6 49<176.47 250.045> -14 9.40039<259.5 290.5> 427 31<184.191 329.172>
VStem: 12 83<132.261 317.163> 269.5 50<-218.312 -135.1>
LayerCount: 2
Fore
SplineSet
186.5 -141.6 m 0
 179.935 -144.226 159.632 -131.703 171.5 -116.6 c 2
 259.5 -4.59961 l 25
 290.5 -4.59961 l 25
 251.5 -55.5996 l 2
 244.755 -64.4209 253.566 -73.4414 258.5 -75.5996 c 0
 290.5 -89.5996 319.5 -118.6 319.5 -151.6 c 0
 319.5 -231.6 230.5 -286.6 194.5 -286.6 c 0
 180.5 -286.6 175.613 -283.73 170.5 -274.6 c 24
 163.219 -261.598 163.104 -251.109 166.5 -236.6 c 24
 168.055 -229.957 174.934 -224.974 181.5 -227.6 c 0
 196.5 -233.6 208.5 -237.6 230.5 -237.6 c 0
 256.5 -237.6 269.5 -218.6 269.5 -192.6 c 0
 269.5 -156.6 237.5 -141.6 202.5 -139.6 c 0
 195.5 -139.6 191.5 -139.6 186.5 -141.6 c 0
263 458 m 20
 285 458 322 454 335 450 c 4
 346 446 380 441 392 437 c 4
 397 436 399 426 401 416 c 4
 403 395 405 377 406 340 c 4
 406 334 399 323 393 324 c 4
 385 325 373 330 371 346 c 5
 368 374 354 393 346 401 c 4
 332 415 289 427 247 427 c 4
 146 427 95 329 95 239 c 0
 95 133 154.21 24.9551 261 21 c 16
 288 20 319 31 345 47 c 0
 371 62 379 86 383 99 c 0
 385 107 408 112 413 112 c 0
 422 112 421 102 420 94 c 0
 417 77 397 31 387 15 c 0
 380 2 297.817 -14 239 -14 c 16
 117 -14 12 94.2939 12 222 c 16
 12 357 128.636 458 263 458 c 20
EndSplineSet
Validated: 37
EndChar
StartChar: ntilde
Encoding: 241 241 169
Width: 631
VWidth: 0
Flags: W
HStem: -14 21G<510.919 529.175> -3 24<62.3025 102.76 192.857 225.931> 425 24<52.9092 103.383 431.989 469.611 576.188 609.063> 532.819 66<278.142 412.819> 545.819 67<250.02 385.472>
VStem: 129 46<86.0745 336.475> 198.557 266 507 40<109.998 403.448>
LayerCount: 2
Fore
SplineSet
67 -3 m 8x67
 57.6396 -3 61 20 67 21 c 0x67
 85 24 95.6465 24.6143 107 37 c 24
 119.251 50.3643 121 64 122 81 c 8
 128.414 190.046 129 248 129 361 c 0
 129 381 131 387 123 397 c 0
 102 422 70 424 59 425 c 0
 50 425 50 449 59 449 c 0
 113 447 152 449 203 449 c 0
 211 449 213.485 440.537 219 434 c 24
 325.064 308.28 379.723 232.937 489 110 c 24
 493.664 104.753 506 83 507 110 c 0
 511 214 508 266 504 378 c 0
 503 409 448 420 435 425 c 0
 431 426 430 447 435 447 c 0
 471 447 488.645 443 523 443 c 24
 555.407 443 576 447 606 447 c 0
 610 447 613 425 606 425 c 0
 586 422 577 414 571 409 c 0
 565 405 552.779 394.853 552 382 c 24
 543.293 238.341 547 159 547 13 c 0
 547 -2 536.351 -14 522 -14 c 24xa7
 499.839 -14 480 4 472 13 c 0
 371 137 313 205 204 329 c 0
 184 351 180 341 179 332 c 0
 177 271 173 135 175 73 c 0
 176 60 177.011 50.1611 186 40 c 24
 196.291 28.3672 200 25 221 21 c 0
 228 20 230 -3 218 -3 c 0
 184 -3 171.681 1 142 1 c 24
 112.708 1 96 -3 67 -3 c 8x67
EndSplineSet
Refer: 350 732 N 1 0 0 1 514.557 34.8194 2
Validated: 33
EndChar

StartChar: otilde
Encoding: 245 245 173
Width: 605
VWidth: 0
Flags: W
HStem: -15 37<242.335 386.997> 424 32<229.322 364.877> 515 66<261.585 396.262> 528 67<233.463 368.915>
VStem: 66 85<119.755 310.96> 182 266 468 84<121.475 314.94>
LayerCount: 2
Fore
SplineSet
297 424 m 0xce
 185 424 151 327 151 232 c 0
 151 115 207 22 319 22 c 0
 434 22 468 133 468 212 c 0
 468 313 417 424 297 424 c 0xce
66 217 m 0
 66 340 175 456 303 456 c 0
 436 456 552 357 552 221 c 0
 552 98 467 -15 303 -15 c 0
 170 -15 66 88 66 217 c 0
EndSplineSet
Refer: 350 732 N 1 0 0 1 498 17 2
Validated: 1
EndChar

StartChar: odieresis
Encoding: 246 246 74
Width: 605
VWidth: 0
Flags: W
HStem: -15 37<242.335 386.997> 424 32<229.322 364.877> 513 100<184.202 262.798 361.202 439.798>
VStem: 66 85<119.755 310.96> 173.5 100<523.702 602.298> 350.5 100<523.702 602.298> 468 84<121.475 314.94>
LayerCount: 2
Fore
SplineSet
297 424 m 0
 185 424 151 327 151 232 c 0
 151 115 207 22 319 22 c 0
 434 22 468 133 468 212 c 0
 468 313 417 424 297 424 c 0
66 217 m 0
 66 340 175 456 303 456 c 0
 436 456 552 357 552 221 c 0
 552 98 467 -15 303 -15 c 0
 170 -15 66 88 66 217 c 0
EndSplineSet
Refer: 72 168 S 1 0 0 1 489.5 19 2
Validated: 1
EndChar
StartChar: ydieresis
Encoding: 255 255 178
Width: 494
VWidth: 0
Flags: W
HStem: -4 27<127.655 172.989 302.406 347.107> 426 24<23.6411 59.0781 166.547 201.245 302.585 337.089 417.265 457.175> 512 100<125.202 203.798 302.202 380.798>
VStem: 114.5 100<522.702 601.298> 200 75<47.4598 248.634> 291.5 100<522.702 601.298>
LayerCount: 2
Fore
SplineSet
341.5 612 m 4xe4
 366.5 612 391.5 587 391.5 562 c 4
 391.5 537 366.5 512 341.5 512 c 4
 316.5 512 291.5 537 291.5 562 c 4
 291.5 587 316.5 612 341.5 612 c 4xe4
164.5 612 m 4
 189.5 612 214.5 587 214.5 562 c 4
 214.5 537 189.5 512 164.5 512 c 4
 139.5 512 114.5 537 114.5 562 c 4xf4
 114.5 587 139.5 612 164.5 612 c 4
30 426 m 0
 22 427 17.5674 450 27 450 c 16
 59 450 78.2305 448 111 448 c 24
 144.549 448 158 450 197 450 c 0
 204 450 204 429 197 428 c 0
 168 424 155 412 170 385 c 0
 206 323 213 319 240 279 c 0
 263 245 253 247 277 279 c 0
 300 311 326 349 343 382 c 4
 355 406 333 423 307 427 c 4
 299 428 299.607 451 309 451 c 20
 342 451 352.92 451 381 451 c 20
 412 451 424 452 455 452 c 12
 463.19 452 460 432 455 431 c 4
 415 425 384 382 370 361 c 4
 338 308 328 303 294 246 c 0
 276 216 274 219 275 193 c 0
 276 160 274 112 275 82 c 0
 275 68 277.218 56.7871 288 47 c 24
 304.539 31.9883 319 27 340 23 c 0
 352 20 351 -4 340 -4 c 0
 301 -4 279.681 2 241 2 c 24
 199.204 2 171 -4 134 -4 c 0
 126 -4 122 20 134 23 c 0
 155 27 170.083 31.8779 187 47 c 24
 197.855 56.7041 200 68 200 82 c 0
 200 189 200 158 200 193 c 0xec
 200 220 191 229 188 235 c 0
 158 289 137 309 101 359 c 0
 89 375 70 424 30 426 c 0
EndSplineSet
Validated: 33
EndChar
StartChar: dcaron
Encoding: 271 271 194
Width: 519
Flags: W
HStem: -3 36<172.032 337.854> 0 24<18.1875 49.579> 422 31<142.997 312.128>
VStem: 83 75<45.4952 399.614> 421 85<131.07 322.825>
LayerCount: 2
Fore
SplineSet
177.275 692 m 2x38
 247.275 596 l 1
 316.275 692 l 2
 321.656 699.486 333.275 710 345.275 710 c 0
 353.275 710 359.177 700.583 353.275 689 c 2
 353.275 689 300.275 581.301 275.275 538 c 0
 264.775 519.813 254.275 509 247.275 509 c 0
 240.275 509 229.775 519.813 219.275 538 c 0
 197.775 575.239 141.275 689 141.275 689 c 2
 135.373 700.583 141.275 710 149.275 710 c 0
 161.275 710 171.443 699.998 177.275 692 c 2x38
181 43 m 0
 195 32 224 33 267 33 c 0xb8
 329 33 357 61 376 81 c 0
 399 106 421 155 421 242 c 0
 421 319 357 421 246 422 c 0
 189 422 158 411 158 383 c 2
 158 91 l 2
 158 63 167 54 181 43 c 0
263 -3 m 0
 250 -3 178.867 2.33203 125 3 c 0
 84.4258 3.50293 39 0 21 0 c 0
 16 0 16 23 21 24 c 0x78
 40 29 50.7441 34.1025 64 48 c 0
 76.1641 60.7529 82 71 83 89 c 1
 83 350 l 2
 83 369 81 392 74 400 c 0
 61 415 59 416 34 423 c 0
 28 425 23.2422 448 33 448 c 0
 61 448 83.0107 446 115 446 c 0
 140 446 225 453 243 453 c 0
 420 453 507 351 506 235 c 0
 505 153 475 108 452 79 c 0
 419 37 348 -3 263 -3 c 0
EndSplineSet
Validated: 33
EndChar

StartChar: dcroat
Encoding: 273 273 990
Width: 519
VWidth: 0
Flags: W
HStem: -3 36<172.032 337.854> 0 24<18.1875 49.5789> 422 31<142.997 312.128> 535 36<200.009 513.504>
VStem: 83 75<45.4952 399.614> 421 85<131.07 322.825>
LayerCount: 2
Fore
SplineSet
224 571 m 26x3c
 503 571 l 26
 510 571 519 564 516 557 c 24
 509 544 500 535 485 535 c 26
 214 535 l 26
 205 535 200 547 200 553 c 0
 200 562 212 571 224 571 c 26x3c
EndSplineSet
Refer: 11 100 N 1 0 0 1 0 0 2
Validated: 1
EndChar
StartChar: gcircumflex
Encoding: 285 285 206
Width: 507
Flags: W
HStem: -12 36<204.672 351.615> 178 34<300.377 373.835 453.411 491.445> 422 32<207.383 359.691>
VStem: 20 84<132.931 310.158> 381 75<45.6252 162.706> 381 62<52.1408 156.612>
LayerCount: 2
Fore
SplineSet
220 532 m 2xf0
 214.168 524.002 204 514 192 514 c 0
 184 514 178.098 523.417 184 535 c 2
 184 535 240.5 648.761 262 686 c 0
 272.5 704.187 283 715 290 715 c 0
 297 715 307.5 704.187 318 686 c 0
 343 642.699 396 535 396 535 c 2
 401.902 523.417 396 514 388 514 c 0
 376 514 364.381 524.514 359 532 c 2
 290 628 l 1
 220 532 l 2xf0
272 24 m 0
 307 24 348 39 360 46 c 0
 377 57 381 78 381 102 c 0xf8
 381 123 385 149 379 157 c 0
 366 172 326 178 312 178 c 0
 305 178 300 194 298 204 c 0
 298 207 298 212 301 212 c 0
 341.577 212 367 209 405 209 c 0
 435.43 209 458 211 483 211 c 0
 487.219 211 492 209 492 205 c 0
 492 194.122 490 180 485 178 c 0
 465 172 448 163 446 145 c 0
 443 117 442.662 101.713 443 74 c 0xf4
 443.056 69.4355 444.678 66.9297 447 63 c 0
 449.82 58.2275 456 55 456 52 c 0xf8
 456 48 451.63 42.0361 446 39 c 0
 416.34 23.0039 399.353 13.4287 367 4 c 0
 330.56 -6.6201 297 -12 271 -12 c 0
 137.169 -12 20 88.169 20 222 c 0
 20 357 151.167 454 290 454 c 0
 341 454 373.3 450 404 440 c 0
 416.786 435.835 426 432 429 420 c 0
 436.101 391.6 442 360 442 342 c 0
 442 335 437 328 431 328 c 0
 417.151 328 404 339 401 347 c 0
 396 361 389 379 378 393 c 0
 369 403 341 423 275 422 c 0
 177.047 420.516 104 342 104 238 c 0
 104 130 167 24 272 24 c 0
EndSplineSet
Validated: 33
EndChar
StartChar: gbreve
Encoding: 287 287 208
Width: 507
Flags: W
HStem: -12 36<204.672 351.615> 178 34<300.377 373.835 453.411 491.445> 422 32<207.383 359.691> 514 55<236.618 343.382> 634 20G<193 203 377 387>
VStem: 20 84<132.931 310.158> 183 32<600.396 653.922> 365 32<601.031 653.922> 381 75<45.6252 162.706> 381 62<52.1408 156.612>
LayerCount: 2
Fore
SplineSet
215 633 m 0xff
 228 611 230 569 290 569 c 0
 350 569 352 611 365 633 c 0
 370 642 372 654 382 654 c 0
 392 654 397 643 397 630 c 0
 397 566 360 514 290 514 c 0
 220 514 183 555 183 630 c 0
 183 643 188 654 198 654 c 0
 208 654 210 642 215 633 c 0xff
272 24 m 0
 307 24 348 39 360 46 c 0
 377 57 381 78 381 102 c 0xfe80
 381 123 385 149 379 157 c 0
 366 172 326 178 312 178 c 0
 305 178 300 194 298 204 c 0
 298 207 298 212 301 212 c 0
 341.577 212 367 209 405 209 c 0
 435.43 209 458 211 483 211 c 0
 487.219 211 492 209 492 205 c 0
 492 194.122 490 180 485 178 c 0
 465 172 448 163 446 145 c 0
 443 117 442.662 101.713 443 74 c 0xfe40
 443.056 69.4355 444.678 66.9297 447 63 c 0
 449.82 58.2275 456 55 456 52 c 0xfe80
 456 48 451.63 42.0361 446 39 c 0
 416.34 23.0039 399.353 13.4287 367 4 c 0
 330.56 -6.6201 297 -12 271 -12 c 0
 137.169 -12 20 88.169 20 222 c 0
 20 357 151.167 454 290 454 c 0
 341 454 373.3 450 404 440 c 0
 416.786 435.835 426 432 429 420 c 0
 436.101 391.6 442 360 442 342 c 0
 442 335 437 328 431 328 c 0
 417.151 328 404 339 401 347 c 0
 396 361 389 379 378 393 c 0
 369 403 341 423 275 422 c 0
 177.047 420.516 104 342 104 238 c 0
 104 130 167 24 272 24 c 0
EndSplineSet
Validated: 33
EndChar
StartChar: gdotaccent
Encoding: 289 289 210
Width: 507
Flags: W
HStem: -12 36<204.672 351.615> 178 34<300.377 373.835 453.411 491.445> 422 32<207.383 359.691> 514 101<248.617 331.323>
VStem: 20 84<132.931 310.158> 239.5 101<523.117 605.823> 381 75<45.6252 162.706> 381 62<52.1408 156.612>
LayerCount: 2
Fore
SplineSet
239.5 564 m 0xfc
 239.5 593 261.5 615 289.5 615 c 0
 318.5 615 340.5 593 340.5 564 c 0
 340.5 536 318.5 514 289.5 514 c 0
 261.5 514 239.5 536 239.5 564 c 0xfc
272 24 m 0
 307 24 348 39 360 46 c 0
 377 57 381 78 381 102 c 0xfe
 381 123 385 149 379 157 c 0
 366 172 326 178 312 178 c 0
 305 178 300 194 298 204 c 0
 298 207 298 212 301 212 c 0
 341.577 212 367 209 405 209 c 0
 435.43 209 458 211 483 211 c 0
 487.219 211 492 209 492 205 c 0
 492 194.122 490 180 485 178 c 0
 465 172 448 163 446 145 c 0
 443 117 442.662 101.713 443 74 c 0xfd
 443.056 69.4355 444.678 66.9297 447 63 c 0
 449.82 58.2275 456 55 456 52 c 0xfe
 456 48 451.63 42.0361 446 39 c 0
 416.34 23.0039 399.353 13.4287 367 4 c 0
 330.56 -6.6201 297 -12 271 -12 c 0
 137.169 -12 20 88.169 20 222 c 0
 20 357 151.167 454 290 454 c 0
 341 454 373.3 450 404 440 c 0
 416.786 435.835 426 432 429 420 c 0
 436.101 391.6 442 360 442 342 c 0
 442 335 437 328 431 328 c 0
 417.151 328 404 339 401 347 c 0
 396 361 389 379 378 393 c 0
 369 403 341 423 275 422 c 0
 177.047 420.516 104 342 104 238 c 0
 104 130 167 24 272 24 c 0
EndSplineSet
Validated: 33
EndChar
StartChar: hcircumflex
Encoding: 293 293 214
Width: 605
Flags: W
HStem: -3 24<15.3203 59.3584 195.049 238.734 349.32 393.358 528.475 573.09> 216 37<164 423> 429 23<24.6897 54.4601 197.74 228.915 359.133 388.46 532.577 563.27>
VStem: 89 75<45.4878 216.466 252.794 409.42> 423 75<45.484 216.346 252.596 409.42>
LayerCount: 2
Fore
SplineSet
224.338 530 m 2
 218.506 522.002 208.338 512 196.338 512 c 0
 188.338 512 182.436 521.417 188.338 533 c 2
 188.338 533 244.838 646.761 266.338 684 c 0
 276.838 702.187 287.338 713 294.338 713 c 0
 301.338 713 311.838 702.187 322.338 684 c 0
 347.338 640.699 400.338 533 400.338 533 c 2
 406.24 521.417 400.338 512 392.338 512 c 0
 380.338 512 368.719 522.514 363.338 530 c 2
 294.338 626 l 1
 224.338 530 l 2
164 259 m 2
 164 254 169.453 253.107 174 253 c 0
 269.134 250.753 322.889 249.944 418 253 c 0
 421.678 253.118 423 255 423 261 c 2
 423 377 l 2
 423 390 416.504 396.763 407 405 c 0
 392.228 417.802 380 422 363 429 c 0
 357 432 357 452 363 452 c 0
 406 452 421.552 450 459 450 c 0
 498.008 450 517 452 559 452 c 0
 567 452 565 432 559 429 c 0
 542 422 527 417 512 404 c 0
 505 398 498 389 498 377 c 2
 498 82 l 2
 498 67 500.515 55.3027 512 45 c 0
 529.155 29.6104 544 25 566 21 c 0
 577 18 577 -3 566 -3 c 0
 526 -3 500.775 2 459 2 c 0
 418.782 2 394 -3 356 -3 c 0
 348 -3 344 18 356 21 c 0
 377 25 392.959 29.4844 410 45 c 0
 421.31 55.2969 423 67 423 82 c 2
 423 211 l 2
 423 216 421.497 215.951 419 216 c 0
 320.738 217.919 265.243 218.697 167 216 c 0
 164.031 215.919 164 214 164 209 c 2
 164 82 l 2
 164 67 166.592 55.3867 178 45 c 0
 194.778 29.7246 210 25 231 21 c 0
 243 18 243 -3 231 -3 c 0
 191 -3 168.828 2 129 2 c 0
 87.2246 2 60 -3 22 -3 c 0
 14 -3 10 18 22 21 c 0
 43 25 58.959 29.4844 76 45 c 0
 87.3096 55.2969 89 67 89 82 c 2
 89 377 l 2
 89 390 82.5039 396.763 73 405 c 0
 58.2285 417.802 46 422 29 429 c 0
 22 432 23 452 29 452 c 0
 72 452 89.9922 450 129 450 c 0
 166.059 450 183 452 224 452 c 0
 233 452 231 432 224 429 c 0
 207 422 192 417 178 404 c 1
 170 398 164 389 164 377 c 2
 164 259 l 2
EndSplineSet
Validated: 33
EndChar
StartChar: itilde
Encoding: 297 297 216
Width: 245
Flags: W
HStem: -3 24<54.3203 98.3584 234.049 277.734> 429 23<63.6897 93.4601 236.74 267.915> 515 66<125.585 260.262> 528 67<97.4632 232.915>
VStem: 128 75<45.4878 409.42>
LayerCount: 2
Fore
SplineSet
46 514 m 0xd8
 71.4043 550.28 113 595 133 595 c 0xd8
 153 595 215 581 240 581 c 0
 255 581 267.093 582.187 294 617 c 0
 299.259 623.805 315.849 604.496 312 599 c 0
 294.558 574.09 248 515 228 515 c 0xe8
 208 515 141 528 116 528 c 0
 101 528 81.5059 512.506 61 492 c 0
 56.0498 487.05 40.2637 505.808 46 514 c 0xd8
203 377 m 2
 203 82 l 2
 203 67 205.592 55.3867 217 45 c 0
 233.778 29.7246 249 25 270 21 c 0
 282 18 282 -3 270 -3 c 0
 230 -3 207.828 2 168 2 c 0
 126.225 2 99 -3 61 -3 c 0
 53 -3 49 18 61 21 c 0
 82 25 97.959 29.4844 115 45 c 0
 126.31 55.2969 128 67 128 82 c 2
 128 377 l 2
 128 390 121.504 396.763 112 405 c 0
 97.2285 417.802 85 422 68 429 c 0
 61 432 62 452 68 452 c 0
 111 452 128.992 450 168 450 c 0
 205.059 450 222 452 263 452 c 0
 272 452 270 432 263 429 c 0
 246 422 231 417 217 404 c 1
 209 398 203 389 203 377 c 2
EndSplineSet
Validated: 1
EndChar
StartChar: imacron
Encoding: 299 299 218
Width: 245
Flags: W
HStem: -3 24<54.3203 98.3584 234.049 277.734> 429 23<63.6897 93.4601 236.74 267.915> 529 50<39.2358 290.448>
VStem: 128 75<45.4878 409.42>
LayerCount: 2
Fore
SplineSet
60 579 m 2
 283 579 l 2
 290.451 579 298.523 572.011 296 565 c 0
 289.725 547.567 283.528 529 265 529 c 2
 50 529 l 2
 42.8086 529 36 535 36 541 c 0
 36 550 42.4717 579 60 579 c 2
203 377 m 2
 203 82 l 2
 203 67 205.592 55.3867 217 45 c 0
 233.778 29.7246 249 25 270 21 c 0
 282 18 282 -3 270 -3 c 0
 230 -3 207.828 2 168 2 c 0
 126.225 2 99 -3 61 -3 c 0
 53 -3 49 18 61 21 c 0
 82 25 97.959 29.4844 115 45 c 0
 126.31 55.2969 128 67 128 82 c 2
 128 377 l 2
 128 390 121.504 396.763 112 405 c 0
 97.2285 417.802 85 422 68 429 c 0
 61 432 62 452 68 452 c 0
 111 452 128.992 450 168 450 c 0
 205.059 450 222 452 263 452 c 0
 272 452 270 432 263 429 c 0
 246 422 231 417 217 404 c 1
 209 398 203 389 203 377 c 2
EndSplineSet
Validated: 1
EndChar
StartChar: OE
Encoding: 338 338 580
Width: 961
VWidth: 0
Flags: W
HStem: -14 39<309.694 511.952> -5 40<626.959 851.358> 2 33<630.215 849.059> 388 20G<796.5 801.5> 618 30<621.469 826.007> 625 39<287.149 477.827>
VStem: 45 97<219.261 447.462> 530 76<54.7206 315.576 352 584.413> 780 32<253.771 300.562> 863 25<532.08 574.023>
LayerCount: 2
Fore
SplineSet
466 -5 m 0x53c0
 440 -11 412 -14 382 -14 c 0
 205 -14 45 130 45 320 c 0
 45 500 163 659 382 664 c 0x97c0
 416 665 449 660 481 652 c 0
 483 651 493 651 496 651 c 0
 538 651 528 648 549 648 c 24
 670 649 832 654 858 653 c 0
 865 653 875 651 876 644 c 0
 883 606 887 576 888 541 c 0
 888 535 880 532 874 532 c 0
 867 532 865 535 863 542 c 0
 856 564 849 581 840 591 c 0
 821 612 798 618 773 618 c 0
 726 618 670 618 642 618 c 0
 631 618 619 604 617 592 c 0
 615 583 610 548 609 520 c 0
 607 472 606 423 606 374 c 0
 606 363 606 352 616 352 c 0
 658 352 696 352 720 352 c 0
 735 352 752 356 764 367 c 0
 773 375 776 379 781 391 c 0
 783 396 794 408 799 408 c 0
 804 408 813 401 812 392 c 0
 807 340 809 320 812 269 c 0
 812 260 811 252 803 252 c 8
 790 252 782 268 780 275 c 0
 770 306 749 312 733 314 c 0
 692 320 670 323 630 316 c 24
 617 314 605 308 606 291 c 0
 606 230 607 170 609 113 c 0
 610 72 627 35 672 35 c 0
 676 35 762 35 776 35 c 0
 781 35 839 43 852 53 c 0
 870 67 886 99 894 116 c 0
 898 124 901 126 908 126 c 24
 915 125 922 121 921 114 c 0
 917 75 912 44 904 12 c 0
 902 4 900 -5 890 -5 c 8x5bc0
 766 -5 673 2 573 2 c 0x33c0
 523 2 468 -5 466 -5 c 0x53c0
530 146 m 0
 535 296 535 349 530 499 c 0
 530 501 528 538 528 540 c 0
 521 601 459 625 375 625 c 0
 227 625 142 490 142 350 c 0
 142 179 247 25 395 25 c 0
 469 25 529 27 528 81 c 0
 528 91 529 131 530 146 c 0
EndSplineSet
Validated: 33
EndChar

StartChar: oe
Encoding: 339 339 581
Width: 745
VWidth: 0
Flags: W
HStem: -14 60<522.987 650.5> -14 30<200.317 306.407> 267 29<456.638 635.052> 380 34<175.791 293.488 506.974 636.685>
VStem: 32 73<113.216 283.304> 383 57<136.479 263.097> 649 68<304.003 371.42>
LayerCount: 2
Fore
SplineSet
235 380 m 0x7e
 150 380 105 293 105 210 c 1
 105 111 173 16 253 16 c 0
 333 16 383 100 383 189 c 0
 383 284 320 380 235 380 c 0x7e
405 65 m 0
 368 18 311 -14 232 -14 c 0x7e
 120 -14 32 66 32 186 c 0
 32 310 129 414 252 414 c 0
 316 414 374 384 412 338 c 0
 418 330 421 328 426 335 c 0
 464 387 522 412 588 413 c 0
 649 414 717 388 717 322 c 0
 717 300 716 282 702 275 c 0
 688 268 662 267 636 267 c 18
 454 265 l 2
 438 265 440 249 440 222 c 0
 440 129 514 47 585 46 c 0
 627 45 663 49 696 88 c 0
 705 99 723 87 717 77 c 0
 673 13 636 -14 560 -14 c 0xbe
 504 -14 450 15 416 65 c 0
 411 72 410 72 405 65 c 0
457 311 m 0
 449 297 459 296 466 296 c 18
 547 296 l 10
 581 296 616 297 636 305 c 8
 648 310 649 330 649 337 c 0
 648 374 603 386 573 386 c 0
 517 386 479 350 457 311 c 0
EndSplineSet
Validated: 33
Ligature2: "LATliga subtable" o e
EndChar
StartChar: uni0163
Encoding: 355 355 262
Width: 489
Flags: W
HStem: -274.6 49<165.97 239.545> -3 25<121.73 164.086 296.914 339.703> 4 3.4<249 269.041> 406 41<72.246 180.16 268.66 420.189>
VStem: 23 34<358.276 395.937> 193 75<46.4591 403.896> 259 50<-206.312 -123.1> 424 28<347.656 398.928>
LayerCount: 2
Fore
SplineSet
176 -129.6 m 0xbb
 169.435 -132.226 149.132 -119.704 161 -104.6 c 2
 249 7.4 l 1
 280 7.4 l 1
 241 -43.6 l 2
 234.255 -52.4213 243.066 -61.4418 248 -63.6 c 0
 280 -77.6 309 -106.6 309 -139.6 c 0
 309 -219.6 220 -274.6 184 -274.6 c 0
 170 -274.6 165.113 -271.731 160 -262.6 c 0
 152.719 -249.598 152.604 -239.11 156 -224.6 c 0
 157.555 -217.957 164.434 -212.974 171 -215.6 c 0
 186 -221.6 198 -225.6 220 -225.6 c 0
 246 -225.6 259 -206.6 259 -180.6 c 0
 259 -144.6 227 -129.6 192 -127.6 c 0
 185 -127.6 181 -127.6 176 -129.6 c 0xbb
377 406 m 0
 342 406 291 405 279 404 c 0
 270 403 268 387 268 374 c 2
 268 81 l 2
 268 66 270.218 55.7871 281 46 c 0
 297.539 30.9883 312 26 333 22 c 0
 344 19 343 -3 333 -3 c 0xdd
 294 -3 269.041 4 228 4 c 0xbd
 188.904 4 165 -3 128 -3 c 0
 120 -3 117 19 128 22 c 0
 149 26 163.461 30.9883 180 46 c 0
 190.782 55.7871 193 66 193 81 c 2
 193 374 l 2xdd
 193 386 192 402 181 404 c 0
 163 407 150 406 107 406 c 0
 86 406 67 395 57 378 c 0
 53 370 35 350 25 350 c 0
 14 350 19 367 23 376 c 0
 36 402 36 438 40 467 c 0
 42 482 50 482 53 482 c 0
 57 482 68 468 72 461 c 0
 77 451 98 447 116 447 c 2
 387 447 l 2
 408 447 427 447 438 460 c 0
 446 468 458 472 462 472 c 0
 465 472 472 466 469 460 c 0
 459 441 455 396 452 366 c 0
 451.128 357.279 448 346 440 347 c 0
 432 348 426 364 424 370 c 0
 420 387 421 406 377 406 c 0
EndSplineSet
Validated: 37
EndChar
StartChar: utilde
Encoding: 361 361 266
Width: 563
Flags: W
HStem: -13 35<238.389 374.945> 425 25<35.0211 68.4721 167.691 200.01 380.363 415.874 499.32 542.199> 497 66<252.585 387.262> 510 67<224.463 359.915>
VStem: 80 75<101.856 419.064> 431 44<89.461 410.762>
LayerCount: 2
Fore
SplineSet
173 496 m 0xdc
 198.404 532.28 240 577 260 577 c 0xdc
 280 577 342 563 367 563 c 0
 382 563 394.093 564.187 421 599 c 0
 426.259 605.805 442.849 586.496 439 581 c 0
 421.558 556.09 375 497 355 497 c 0xec
 335 497 268 510 243 510 c 0
 228 510 208.506 494.506 188 474 c 0
 183.05 469.05 167.264 487.808 173 496 c 0xdc
80 204 m 2
 80 372 l 2
 80 415 64 418 41 425 c 0
 33 427 29.2188 450 39 450 c 0
 71 450 92.0605 448 126 448 c 0
 152.921 448 156 450 195 450 c 0
 203 450 203 428 195 426 c 0
 166 422 156 404 155 365 c 0
 153 305 155 220 155 185 c 0
 155 98.0791 215 22 307 22 c 0
 391 22 431 70 431 193 c 2
 431 350 l 1
 432 411 419 417 386 425 c 0
 377 428 376.853 451 387 451 c 2
 459 451 l 2
 490 451 508 452 540 452 c 0
 548.58 452 545 431 540 430 c 0
 509.433 423.887 484 412 482 375 c 0
 480 353 475 279 475 217 c 0
 475 102.855 439 -13 294 -13 c 0
 155 -13 80 85.1396 80 204 c 2
EndSplineSet
Validated: 33
EndChar
StartChar: zacute
Encoding: 378 378 283
Width: 466
Flags: W
HStem: -3 42<162.888 381.386> -2 19<31.8216 38.9008> 418 33<101.291 300.976>
VStem: 44 35<355.125 403.266>
LayerCount: 2
Fore
SplineSet
208 547 m 0x30
 202.609 539.521 190 525 181 525 c 0
 171.78 525 168 529 168 538 c 0
 168 553 240 679 261 713 c 0
 272.085 730.947 289.496 740.265 312 740 c 0
 329.177 739.798 346 726 346 712 c 0
 346 693 288 658 208 547 c 0x30
324 39 m 0xb0
 357 41 390 53 410 99 c 0
 412 104 431.047 111.176 446 113 c 0
 449.985 113.486 452 109 451 104 c 0
 442 63 431 25 423 9 c 0
 420 3 420 -3 413 -3 c 0xb0
 301.459 -3 201 0 127 -2 c 0
 92 -3 68 -2 34 -2 c 0
 26.5898 -2 34 17 34 17 c 1x70
 38 27 56 52 71 74 c 0
 165 203 218.658 273.809 305 407 c 0
 308.3 412.091 311 417 294 418 c 0
 251 419 171 421 130 418 c 0
 107 416 91 407 79 373 c 0
 76 365 56 348 46 348 c 0
 35 348 41 364 44 374 c 0
 49 391 59 433 68 453 c 0
 73 463 80 465 84 465 c 0
 87 465 94 461 101 455 c 0
 107 451 125.893 450.205 142 450 c 0
 248.853 448.644 336 449 416 451 c 0
 421 451 427 442 424 439 c 0
 408 419 398 404 382 382 c 0
 286 254 238.393 188.429 155 59 c 0
 150.589 52.1543 154 40 161 39 c 0
 201 34 259 34 324 39 c 0xb0
EndSplineSet
Validated: 33
EndChar

StartChar: uni01C0
Encoding: 448 448 582
Width: 260
VWidth: 0
HStem: -14 21G<109 116.5>
VStem: 100 60<-10.1583 700.038>
LayerCount: 2
Fore
SplineSet
100 676 m 10
 100 697.634 140 707 146 707 c 0
 153 707 160 701.451 160 694 c 18
 160 10 l 10
 160 -10.9297 121 -14 112 -14 c 4
 106 -14 100 -7.19141 100 0 c 18
 100 676 l 10
EndSplineSet
Validated: 1
EndChar

StartChar: uni01C1
Encoding: 449 449 583
Width: 270
VWidth: 0
Flags: W
HStem: -14 21G<49 56.5 179 186.5>
VStem: 40 60<-10.1583 700.038> 170 60<-10.1583 700.038>
LayerCount: 2
Fore
SplineSet
40 676 m 10
 40 697.634 80 707 86 707 c 0
 93 707 100 701.451 100 694 c 18
 100 10 l 14
 100 -10.9297 61 -14 52 -14 c 4
 46 -14 40 -7.19141 40 0 c 22
 40 676 l 10
170 676 m 10
 170 697.634 210 707 216 707 c 0
 223 707 230 701.451 230 694 c 18
 230 10 l 14
 230 -10.9297 191 -14 182 -14 c 4
 176 -14 170 -7.19141 170 0 c 22
 170 676 l 10
EndSplineSet
Validated: 1
EndChar
StartChar: uni01D7
Encoding: 471 471 302
Width: 563
VWidth: 0
Flags: W
HStem: -13 35<238.389 374.945> 425 25<35.0211 68.4721 167.691 200.01 380.363 415.874 499.32 542.199> 513 100<152.202 230.798 329.202 407.798> 909.269 72<401.415 510.136>
VStem: 80 75<101.856 419.064> 141.5 100<523.702 602.298> 318.5 100<523.702 602.298> 431 44<89.4612 410.762>
LayerCount: 2
Fore
SplineSet
298.095 860.269 m 0xf3
 289.095 858.269 276.095 855.269 264.095 858.269 c 0
 256.095 860.269 256.095 873.269 267.095 880.269 c 0
 336.095 924.269 368.095 944.269 431.095 976.269 c 0
 449.095 986.269 465.095 990.269 483.095 981.269 c 24
 504.095 971.269 517.095 957.269 518.095 935.269 c 24
 518.095 919.269 500.095 912.269 486.095 909.269 c 0
 425.095 894.269 351.095 875.269 298.095 860.269 c 0xf3
EndSplineSet
Refer: 154 220 N 1 0 0 1 0 0 3
Validated: 33
EndChar
StartChar: uni01D9
Encoding: 473 473 304
Width: 563
VWidth: 0
Flags: W
HStem: -13 35<238.389 374.945> 425 25<35.0211 68.4721 167.691 200.01 380.363 415.874 499.32 542.199> 513 100<152.202 230.798 329.202 407.798>
VStem: 80 75<101.856 419.064> 141.5 100<523.702 602.298> 318.5 100<523.702 602.298> 431 44<89.4612 410.762>
LayerCount: 2
Fore
SplineSet
397.095 867 m 4xe6
 423.095 882 444.095 890 493.095 916 c 4
 505.095 923 515.095 931 528.095 931 c 4
 543.095 931 548.095 918 536.095 908 c 4
 468.095 851 526.095 898 428.095 820 c 4
 408.095 804 402.095 798 387.095 798 c 4
 372.095 798 366.095 804 346.095 820 c 4
 248.095 898 306.095 851 238.095 908 c 4
 226.095 918 231.095 930 246.095 930 c 4
 259.095 930 286.095 919 298.095 912 c 4
 347.095 886 351.095 882 377.095 867 c 4
 388.095 860 386.095 860 397.095 867 c 4xe6
EndSplineSet
Refer: 154 220 N 1 0 0 1 0 0 3
Validated: 1
EndChar
StartChar: uni01DB
Encoding: 475 475 306
Width: 563
VWidth: 0
Flags: W
HStem: -13 35<238.389 374.945> 425 25<35.0211 68.4721 167.691 200.01 380.363 415.874 499.32 542.199> 513 100<152.202 230.798 329.202 407.798> 892.269 72<247.054 355.775>
VStem: 80 75<101.856 419.064> 141.5 100<523.702 602.298> 318.5 100<523.702 602.298> 431 44<89.4612 410.762>
LayerCount: 2
Fore
SplineSet
459.095 843.269 m 0xf3
 406.095 858.269 332.095 877.269 271.095 892.269 c 0
 257.095 895.269 239.095 902.269 239.095 918.269 c 24
 240.095 940.269 253.095 954.269 274.095 964.269 c 24
 292.095 973.269 308.095 969.269 326.095 959.269 c 0
 389.095 927.269 421.095 907.269 490.095 863.269 c 0
 501.095 856.269 501.095 843.269 493.095 841.269 c 0
 481.095 838.269 468.095 841.269 459.095 843.269 c 0xf3
EndSplineSet
Refer: 154 220 N 1 0 0 1 0 0 3
Validated: 33
EndChar
StartChar: uni01DE
Encoding: 478 478 308
Width: 555
VWidth: 0
Flags: W
HStem: -3 24<32.5977 66.9576 182.452 212.952 498.912 529.715> 139 27<198.819 333.7> 443 20<310.5 314> 513 100<165.202 243.798 342.202 420.798> 844 54<216.202 506.221>
VStem: 154.5 100<523.702 602.298> 331.5 100<523.702 602.298>
LayerCount: 2
Fore
SplineSet
236.534 898 m 30
 499.534 898 l 30
 506.985 898 514.891 891.068 512.534 884 c 28
 506.293 865.276 501.271 844 481.534 844 c 30
 226.534 844 l 30
 219.343 844 212.534 850 212.534 856 c 4
 212.534 865 217.669 898 236.534 898 c 30
EndSplineSet
Refer: 134 196 N 1 0 0 1 0 0 3
Validated: 1
EndChar
StartChar: uni01E0
Encoding: 480 480 593
Width: 555
VWidth: 0
Flags: W
HStem: -3 24<32.5977 66.9577 182.452 212.952 498.912 529.715> 139 27<198.819 333.7> 443 20<310.5 314> 523 101<270.617 353.323> 870 54<216.507 506.526>
VStem: 261.5 101<532.117 614.823>
LayerCount: 2
Fore
SplineSet
236.839 924 m 30
 499.839 924 l 30
 507.29 924 515.195 917.068 512.839 910 c 28
 506.598 891.276 501.575 870 481.839 870 c 30
 226.839 870 l 30
 219.647 870 212.839 876 212.839 882 c 4
 212.839 891 217.974 924 236.839 924 c 30
EndSplineSet
Refer: 331 550 N 1 0 0 1 0 0 3
Validated: 1
EndChar
StartChar: uni01E8
Encoding: 488 488 312
Width: 524
VWidth: 0
Flags: W
HStem: -4 24<30.6966 66.8555 198.959 232.437 293.469 335.03 457.662 502.938> 225 20<173.025 189.046> 418 32<296.566 324.6> 425 25<38.9238 69.6776 192.592 229.989 415.309 468.063> 700 21G<335.454 350.454>
VStem: 98 75<47.4944 224.993 245.004 407.713>
LayerCount: 2
Fore
SplineSet
352.954 769 m 4xcc
 378.954 784 399.954 792 448.954 818 c 4
 460.954 825 470.954 833 483.954 833 c 4
 498.954 833 503.954 820 491.954 810 c 4
 423.954 753 481.954 800 383.954 722 c 4
 363.954 706 357.954 700 342.954 700 c 4
 327.954 700 321.954 706 301.954 722 c 4
 203.954 800 261.954 753 193.954 810 c 4
 181.954 820 186.954 832 201.954 832 c 4
 214.954 832 241.954 821 253.954 814 c 4
 302.954 788 306.954 784 332.954 769 c 4
 343.954 762 341.954 762 352.954 769 c 4xcc
EndSplineSet
Refer: 61 75 N 1 0 0 1 0 0 3
Validated: 1
EndChar
StartChar: uni01EC
Encoding: 492 492 316
Width: 773
VWidth: 0
Flags: W
HStem: -287 71<404.464 481.623> -14 39<314.694 459.029> 625 39<292.149 474.251> 724.088 54<244.478 534.497>
VStem: 50 97<219.261 447.462> 303 85<-199.606 -97.6761> 626 97<207.202 448.756>
LayerCount: 2
Fore
SplineSet
264.81 778.088 m 30
 527.81 778.088 l 30
 535.261 778.088 543.166 771.156 540.81 764.088 c 28
 534.568 745.364 529.546 724.088 509.81 724.088 c 30
 254.81 724.088 l 30
 247.618 724.088 240.81 730.088 240.81 736.088 c 4
 240.81 745.088 245.944 778.088 264.81 778.088 c 30
EndSplineSet
Refer: 314 490 N 1 0 0 1 0 0 3
Validated: 1
EndChar
StartChar: uni01F8
Encoding: 504 504 321
Width: 631
VWidth: 0
Flags: W
HStem: -14 21<510.919 529.176> -3 24<62.3025 102.76 192.857 225.931> 425 24<52.9092 103.383 431.989 469.611 576.188 609.063> 754 72<246.708 355.429>
VStem: 129 46<86.0745 336.475> 507 40<109.998 403.448>
LayerCount: 2
Fore
SplineSet
458.749 705 m 0x3c
 405.749 720 331.749 739 270.749 754 c 0
 256.749 757 238.749 764 238.749 780 c 24
 239.749 802 252.749 816 273.749 826 c 24
 291.749 835 307.749 831 325.749 821 c 0
 388.749 789 420.749 769 489.749 725 c 0
 500.749 718 500.749 705 492.749 703 c 0
 480.749 700 467.749 703 458.749 705 c 0x3c
EndSplineSet
Refer: 28 78 N 1 0 0 1 0 0 3
Validated: 33
EndChar
StartChar: uni022C
Encoding: 556 556 337
Width: 605
VWidth: 0
Flags: W
HStem: -15 37<242.335 386.997> 424 32<229.322 364.877> 515 66<261.585 396.262> 528 67<233.463 368.915> 870.527 54<227.559 517.578>
VStem: 66 85<119.755 310.96> 182 266 468 84<121.475 314.94>
LayerCount: 2
Fore
SplineSet
247.891 924.527 m 30xcf
 510.891 924.527 l 30
 518.342 924.527 526.247 917.596 523.891 910.527 c 28
 517.649 891.804 512.627 870.527 492.891 870.527 c 30
 237.891 870.527 l 30
 230.699 870.527 223.891 876.527 223.891 882.527 c 4
 223.891 891.527 229.025 924.527 247.891 924.527 c 30xcf
EndSplineSet
Refer: 149 213 N 1 0 0 1 0 0 3
Validated: 1
EndChar
StartChar: uni0230
Encoding: 560 560 341
Width: 605
VWidth: 0
Flags: W
HStem: -15 37<242.335 386.997> 424 32<229.322 364.877> 700 110<333.847 420.153> 870 54<230.594 520.613>
VStem: 66 85<119.755 310.96> 322 110<711.847 798.153> 468 84<121.475 314.94>
LayerCount: 2
Fore
SplineSet
250.926 924 m 30
 513.926 924 l 30
 521.377 924 529.282 917.068 526.926 910 c 28
 520.685 891.276 515.662 870 495.926 870 c 30
 240.926 870 l 30
 233.734 870 226.926 876 226.926 882 c 4
 226.926 891 232.061 924 250.926 924 c 30
EndSplineSet
Refer: 339 558 N 1 0 0 1 0 0 3
Validated: 1
EndChar
StartChar: uni0232
Encoding: 562 562 343
Width: 494
VWidth: 0
Flags: W
HStem: -4 27<127.655 172.989 302.406 347.107> 426 24<23.6411 60.8134 166.547 201.245 302.585 337.089 417.265 457.175> 723 54<168.339 458.358>
VStem: 200 75<47.4598 248.634>
LayerCount: 2
Fore
SplineSet
188.671 777 m 30
 451.671 777 l 30
 459.122 777 467.027 770.068 464.671 763 c 28
 458.43 744.276 453.407 723 433.671 723 c 30
 178.671 723 l 30
 171.479 723 164.671 729 164.671 735 c 4
 164.671 744 169.806 777 188.671 777 c 30
EndSplineSet
Refer: 49 89 N 1 0 0 1 0 0 3
Validated: 1
EndChar
StartChar: uni02B0
Encoding: 688 688 610
Width: 332
VWidth: 0
Flags: W
HStem: 273 24<6.35742 45.1243 105.948 141.684 187.357 222.518 286.432 323.643> 488 36<130.097 211.809>
VStem: 49 54<298.587 471.533 493.147 649.535> 227 54<298.718 475.726>
LayerCount: 2
Fore
SplineSet
281 323 m 6
 281 307 296 300 309 297 c 4
 316 294 324 289 324 283 c 4
 324 277 312 273 309 273 c 4
 283 273 277 273 254 273 c 4
 231 273 227 273 202 273 c 4
 199 273 187 277 187 283 c 4
 187 289 195 294 202 297 c 4
 215 300 227 307 227 323 c 6
 227 434 l 10
 227 464.061 200 488 172 488 c 0
 156 488 133 481 120 472 c 0
 107 462 103 454 103 429 c 0
 103 382 103 358 103 321 c 4
 103 305 114 300 127 297 c 4
 135 294 142 289 142 283 c 4
 142 277 131 273 127 273 c 4
 102 273 99 273 76 273 c 4
 53 273 47 273 21 273 c 4
 18 273 6 277 6 283 c 4
 6 289 14 294 21 297 c 4
 34 300 49 305 49 321 c 4
 49 483 49 493 49 608 c 0
 49 629 42 647 20 652 c 8
 11.625 653.903 10.5977 672.218 19 674 c 16
 52 681 75 690 96 698 c 0
 99 699 107 696 109 694 c 0
 109 687 103 677 103 612 c 0
 103 575 103 546 103 515 c 0
 103 508 105 496 108 493 c 1
 128 507 161 524 202 524 c 0
 244 524 281 498 281 452 c 2
 281 323 l 6
EndSplineSet
Validated: 1
EndChar
StartChar: uni02B2
Encoding: 690 690 611
Width: 137
VWidth: 0
Flags: W
HStem: 92 24<-5.55711 21.3667> 589 69<49.0938 115.891>
VStem: 46 73<592.656 654.322> 61 57<167.41 466.147>
LayerCount: 2
Fore
SplineSet
46 623 m 4xe0
 46 641 64 658 82 658 c 4
 101 658 119 641 119 623 c 4
 119 606 101 589 82 589 c 4
 64 589 46 606 46 623 c 4xe0
61 425 m 0xd0
 61 446 52 464 31 469 c 8
 22.6445 470.989 21.5977 489.218 30 491 c 16
 63 498 86 518 109 530 c 0
 112 531 123 531 123 528 c 0
 122 514 118 481 118 429 c 0
 118 399 118 362 118 319 c 0
 118 282 117 221 99 173 c 0
 83 133 41 97 15 92 c 0
 10 91 -6 95 -6 100 c 0
 -6 105 -3 116 -1 116 c 0
 14 120 30 130 42 154 c 0
 61 191 61 266 61 307 c 0
 61 360 61 395 61 425 c 0xd0
EndSplineSet
Validated: 1
EndChar

StartChar: uni02B3
Encoding: 691 691 612
Width: 229
VWidth: 0
Flags: W
HStem: 273 24<7.35742 46.7138 107.54 150.643> 469 52<126.035 208.803>
VStem: 50 51<300.648 462.79>
LayerCount: 2
Fore
SplineSet
101 421 m 0
 101 391 101 351 101 322 c 0
 101 306 123 300 136 297 c 0
 143 294 151 289 151 283 c 0
 151 277 139 273 136 273 c 0
 110 273 104 273 81 273 c 0
 58 273 48 273 22 273 c 0
 19 273 7 277 7 283 c 0
 7 289 15 294 22 297 c 0
 35 300 49 303 50 319 c 4
 50 349 50 400 50 431 c 4
 50 453 42 470 20 475 c 8
 11.6338 476.901 11.6064 495.22 20 497 c 16
 53 504 74 520 92 530 c 0
 95 531 104 528 105 526 c 0
 105 522 104 506 103 487 c 0
 103 481 114 490 119 494 c 0
 140 511 158 521 185 521 c 0
 203 521 223 512 223 496 c 0
 223 484 209 458 196 458 c 0
 181 458 163 469 150 469 c 0
 129 469 101 461 101 421 c 0
EndSplineSet
Validated: 1
EndChar

StartChar: uni02B8
Encoding: 696 696 614
Width: 304
VWidth: 0
Flags: W
HStem: 110 46<10.0579 78.8375> 500 24<8.60253 45.2336 110.558 135.4 182.663 206.701 255.482 291.397>
VStem: 8 284
LayerCount: 2
Fore
SplineSet
23 500 m 0
 15 502 8 509 8 515 c 0
 8 521 19 524 23 524 c 0
 48 524 45 524 68 524 c 0
 91 524 96 524 122 524 c 0
 125 524 136 521 136 515 c 0
 136 509 129 502 122 500 c 0
 109 496 107 480 112 468 c 18
 155 366 l 2
 159 357 162 358 165 366 c 2
 204 458 l 10
 210 473 210 496 197 500 c 0
 190 502 182 509 182 515 c 0
 182 521 194 524 197 524 c 0
 207 524 218 524 241 524 c 0
 264 524 265 524 277 524 c 0
 281 524 292 521 292 515 c 0
 292 509 285 502 277 500 c 0
 264 496 247 485 239 468 c 26
 151 273 l 2
 148 268 115 192 88 135 c 0
 80 118 65 110 46 110 c 8
 30 110 10 118 10 132 c 8
 10 143 14 155 26 156 c 0
 43 156 57 139 66 153 c 0
 79 174 101 225 120 271 c 0
 123 279 126 301 122 310 c 2
 52 478 l 10
 46 491 36 496 23 500 c 0
EndSplineSet
Validated: 33
EndChar

StartChar: caron
Encoding: 711 711 979
Width: 0
VWidth: 0
Flags: W
HStem: 447 201
VStem: -273 212
LayerCount: 2
Fore
SplineSet
-237 630 m 2
 -237 630 -195.679 574.958 -167 534 c 1
 -138.321 574.958 -98 630 -98 630 c 2
 -92.6191 637.486 -81 648 -69 648 c 0
 -61 648 -55.0977 638.583 -61 627 c 2
 -61 627 -114 519.301 -139 476 c 0
 -149.5 457.813 -160 447 -167 447 c 0
 -174 447 -184.5 457.813 -195 476 c 0
 -216.5 513.239 -273 627 -273 627 c 2
 -278.902 638.583 -273 648 -265 648 c 0
 -253 648 -242.832 637.998 -237 630 c 2
EndSplineSet
Validated: 1
EndChar

StartChar: uni02C9
Encoding: 713 713 976
Width: 0
VWidth: 0
Flags: W
HStem: 510 50<-306.764 -55.5522>
VStem: -310 260
LayerCount: 2
Fore
SplineSet
-286 560 m 30
 -63 560 l 30
 -55.5488 560 -47.4762 553.011 -50 546 c 28
 -56.2754 528.567 -62.4717 510 -81 510 c 26
 -296 510 l 26
 -303.191 510 -310 516 -310 522 c 0
 -310 531 -303.528 560 -286 560 c 30
EndSplineSet
Validated: 1
EndChar
StartChar: uni02E1
Encoding: 737 737 619
Width: 149
VWidth: 0
Flags: W
HStem: 273 25<4.52148 44.4531 103.547 143.479> 652 22<11.1941 33.0131>
VStem: 47 54<299.79 648.847>
LayerCount: 2
Fore
SplineSet
101 320 m 0
 101 304 116 302 129 298 c 0
 136 296 144 289 144 283 c 0
 144 277 132 273 129 273 c 0
 104 273 97 273 74 273 c 0
 51 273 44 273 19 273 c 0
 16 273 4 277 4 283 c 0
 4 289 12 296 19 298 c 0
 32 302 47 304 47 320 c 0
 47 457 47 494 47 608 c 0
 47 617 38 648 17 652 c 8
 8.57129 653.605 8.60645 672.22 17 674 c 16
 50 681 71 691 92 698 c 0
 95 699 105 696 105 694 c 0
 105 687 101 666 101 612 c 0
 101 508 101 439 101 320 c 0
EndSplineSet
Validated: 1
EndChar
StartChar: uni02E2
Encoding: 738 738 620
Width: 203
VWidth: 0
Flags: W
HStem: 269 30<48.3601 121.984> 503 33<85.1516 147.019>
VStem: 13 27<310.035 331.438> 23 57<443.413 501.507> 128 61<302.614 364.801> 150 32<473.031 498.097>
LayerCount: 2
Fore
SplineSet
113 503 m 0xd4
 87 503 80 485 80 472 c 0
 80 456 114.352 433.545 132 417 c 0
 148 402 189 376 189 343 c 0
 189 301 155 269 80 269 c 0xd8
 67 269 25 282 21 290 c 0
 17 299 13 313 13 327 c 0
 13 333 39 335 40 328 c 0
 45 308 70 299 90 299 c 0
 120 299 128.419 319.009 128 329 c 4xe8
 127.162 348.982 108 365 87 380 c 0
 57 401 23 426 23 464 c 0
 23 507 62 537 116 536 c 0
 141.996 535.519 167 515 173 509 c 1
 181 500 182 487 182 470 c 0
 182 463 151.167 472.027 150 479 c 0
 146.534 499.712 121 503 113 503 c 0xd4
EndSplineSet
Validated: 33
EndChar

StartChar: tildecomb
Encoding: 771 771 111
Width: 360
VWidth: 0
Flags: W
HStem: 481 73<130.815 271.413> 497 73<90.8845 231.938>
VStem: 50 260
LayerCount: 2
Fore
SplineSet
50 483 m 0x60
 71 522 92 570 137 570 c 0x60
 183 570 199 554 240 554 c 16
 266 554 280 569 297 591 c 0
 302 598 313 579 310 573 c 0
 296 546 277 481 228 481 c 0xa0
 180 481 174 497 120 497 c 0
 97 497 81 483 65 465 c 0
 60 460 47 477 50 483 c 0x60
EndSplineSet
Validated: 1
EndChar

StartChar: uni0311
Encoding: 785 785 981
Width: 336
VWidth: 0
Flags: W
HStem: 456 21G<72 82 256 266> 541 55<115.618 222.382>
VStem: 62 32<456.078 509.604> 244 32<456.078 508.969>
LayerCount: 2
Fore
SplineSet
94 477 m 4
 89 468 87 456 77 456 c 4
 67 456 62 467 62 480 c 4
 62 555 99 596 169 596 c 4
 239 596 276 544 276 480 c 4
 276 467 271 456 261 456 c 4
 251 456 249 468 244 477 c 4
 231 499 229 541 169 541 c 4
 109 541 107 499 94 477 c 4
EndSplineSet
Validated: 1
EndChar

StartChar: uni0312
Encoding: 786 786 125
Width: 216
VWidth: 0
Flags: W
HStem: 426 78<89.5161 156.433> 625 21<133.81 174.748>
LayerCount: 2
Fore
SplineSet
115 504 m 0
 144 504 162 484 162 462 c 0
 162 446 144 426 115 426 c 0
 67 426 32 467 32 523 c 4
 32 587 105 644 156 646 c 0
 180 647 183 629 162 625 c 0
 119 616 87 584 84 554 c 0
 82 532 95 504 115 504 c 0
EndSplineSet
Validated: 33
EndChar

StartChar: uni0326
Encoding: 806 806 129
Width: 216
VWidth: 0
Flags: W
HStem: -274 21<54.5755 82.7123> -145 88<48.4821 116.02>
VStem: 118.5 53.5<-221.477 -148.127>
LayerCount: 2
Fore
SplineSet
87.5 -145 m 0
 65 -140 38 -122.5 38 -100.5 c 0
 38 -76.5 55 -57 84 -57 c 0
 132 -57 172 -98 172 -154 c 0
 172 -218 121 -263.5 71 -274 c 0
 47.4922 -278.937 44.8798 -260.223 65 -253 c 0
 104 -239 118.5 -201.5 118.5 -173.5 c 0
 118.5 -156.5 106.207 -149.157 87.5 -145 c 0
EndSplineSet
Validated: 1
EndChar

StartChar: uni0327
Encoding: 807 807 625
Width: 0
VWidth: 0
Flags: W
HStem: -274 49<-273.03 -199.455>
VStem: -180 50<-205.712 -122.5>
LayerCount: 2
Fore
SplineSet
-263 -129 m 0
 -269.565 -131.626 -289.868 -119.104 -278 -104 c 2
 -190 8 l 25
 -159 8 l 25
 -198 -43 l 2
 -204.745 -51.8213 -195.934 -60.8418 -191 -63 c 0
 -159 -77 -130 -106 -130 -139 c 0
 -130 -219 -219 -274 -255 -274 c 0
 -269 -274 -273.887 -271.131 -279 -262 c 24
 -286.281 -248.998 -286.396 -238.51 -283 -224 c 24
 -281.445 -217.357 -274.566 -212.374 -268 -215 c 0
 -253 -221 -241 -225 -219 -225 c 0
 -193 -225 -180 -206 -180 -180 c 0
 -180 -144 -212 -129 -247 -127 c 0
 -254 -127 -258 -127 -263 -129 c 0
EndSplineSet
Validated: 33
EndChar

StartChar: uni0328
Encoding: 808 808 128
Width: 390
VWidth: 0
Flags: W
HStem: -287 66<200.909 282.82>
VStem: 108 78<-206.67 -104.632>
LayerCount: 2
Fore
SplineSet
272 18 m 9
 298 18 l 17
 230 -39 186 -66 186 -155 c 8
 186 -189 209 -221 243 -221 c 16
 278 -221 314 -182 323 -177 c 8
 328 -174 335 -175 335 -183 c 8
 335 -201 326 -218 321 -227 c 0
 306 -253 265 -287 215 -287 c 8
 154 -287 108 -234 108 -173 c 16
 108 -93 185 -39 272 18 c 9
EndSplineSet
Validated: 1
EndChar
StartChar: Iotadieresis
Encoding: 938 938 645
Width: 320
VWidth: 0
Flags: W
HStem: -3 24<54.3203 98.3583 234.049 277.734> 429 23<63.6897 93.4601 236.74 267.915> 724 110<42.8018 129.108 232.802 319.108>
VStem: 30.9551 110<735.847 822.153> 128 75<45.4878 409.42> 220.955 110<735.847 822.153>
LayerCount: 2
Fore
SplineSet
275.955 834 m 24xe4
 305.955 834 330.955 809 330.955 779 c 24
 330.955 749 305.955 724 275.955 724 c 24
 245.955 724 220.955 749 220.955 779 c 24
 220.955 809 245.955 834 275.955 834 c 24xe4
85.9551 834 m 24
 115.955 834 140.955 809 140.955 779 c 24
 140.955 749 115.955 724 85.9551 724 c 24
 55.9551 724 30.9551 749 30.9551 779 c 24xf4
 30.9551 809 55.9551 834 85.9551 834 c 24
EndSplineSet
Refer: 636 921 N 1 0 0 1 0 0 3
Validated: 1
EndChar

StartChar: mu
Encoding: 956 956 1131
Width: 510
VWidth: 0
Flags: W
HStem: -285 21G<93.1944 118.5> -15 73<140.653 248.131 386.956 473.558>
VStem: 31 106<-249.107 -202.92> 31 91<201.392 405.034> 38 53<82.25 272.095> 317 88<270.652 402.519> 496 19<90.8022 109.673>
LayerCount: 2
Fore
SplineSet
431 58 m 16xce
 462 58 483 80 496 106 c 0
 500 115 514.535 109.559 515 102 c 24
 516.505 77.5479 505.028 49.0449 500 41 c 0
 470 -7 449 -15 417 -15 c 0
 384 -15 367 0 347 48 c 0
 344.567 53.8379 328 93 326 114 c 1
 319 98 260 -13 210 -13 c 0
 162 -13 138 6 98 38 c 0
 88.0615 45.9512 77.2109 62 70 62 c 0
 53 62 61 -18 72 -78 c 0
 85 -156 137 -236 137 -254 c 0xe6
 137 -273.646 128 -285 109 -285 c 8
 77.3887 -285 57.7773 -265.405 46 -234 c 0
 37 -210 31 -75 31 0 c 0xd6
 31 17 38 60 38 92 c 0xce
 38 125 31 288 31 332 c 0
 31 374.048 43.8057 418 83 418 c 16
 112 418 122 391 122 343 c 0xd6
 122 300.81 91 172 91 132 c 0
 91 106 122.71 52 170 52 c 16
 223.2 52 255.08 74.4854 279 122 c 24
 316.425 196.341 317 255.059 317 332 c 0
 317 371 332 415 366 415 c 0
 400 415 405 374 405 352 c 0
 405 315.326 357 215 357 162 c 0
 357 125.122 381.221 58 431 58 c 16xce
EndSplineSet
Validated: 33
EndChar
StartChar: uni0400
Encoding: 1024 1024 960
Width: 421
VWidth: 0
Flags: W
HStem: -3 24<11.2984 48.228> 3 36<164.786 334.559> 410 41<161.645 328.992> 429 21<22.3123 57.3167> 776.27 72<212.679 321.4>
VStem: 79 75<45.5227 217.677 253 406.614> 347 19<347.096 375.298>
LayerCount: 2
Fore
SplineSet
424.72 727.27 m 0x0e
 371.72 742.27 297.72 761.27 236.72 776.27 c 0
 222.72 779.27 204.72 786.27 204.72 802.27 c 24
 205.72 824.27 218.72 838.27 239.72 848.27 c 24
 257.72 857.27 273.72 853.27 291.72 843.27 c 0
 354.72 811.27 386.72 791.27 455.72 747.27 c 0
 466.72 740.27 466.72 727.27 458.72 725.27 c 0
 446.72 722.27 433.72 725.27 424.72 727.27 c 0x0e
EndSplineSet
Refer: 659 1045 N 1 0 0 1 0 0 3
Validated: 33
EndChar
StartChar: uni0401
Encoding: 1025 1025 961
Width: 421
VWidth: 0
Flags: W
HStem: -3 24<11.2984 48.228> 3 36<164.786 334.559> 410 41<161.645 328.992> 429 21<22.3123 57.3167> 699 110<163.566 249.873 353.566 439.873>
VStem: 79 75<45.5227 217.677 253 406.614> 151.72 110<710.847 797.153> 341.72 110<710.847 797.153> 347 19<347.096 375.298>
LayerCount: 2
Fore
SplineSet
396.72 809 m 24x09
 426.72 809 451.72 784 451.72 754 c 24
 451.72 724 426.72 699 396.72 699 c 24
 366.72 699 341.72 724 341.72 754 c 24
 341.72 784 366.72 809 396.72 809 c 24x09
206.72 809 m 24
 236.72 809 261.72 784 261.72 754 c 24
 261.72 724 236.72 699 206.72 699 c 24
 176.72 699 151.72 724 151.72 754 c 24x0a
 151.72 784 176.72 809 206.72 809 c 24
EndSplineSet
Refer: 659 1045 N 1 0 0 1 0 0 3
Validated: 1
EndChar
StartChar: uni0403
Encoding: 1027 1027 1109
Width: 516
VWidth: 0
HStem: -3 27<25.9902 69.6345 248.758 294.23> 611 37<205.633 445.808> 626 25<28.9978 76.3297> 754.27 72<320.527 429.248>
VStem: 111 86<58.3772 594.421> 478 25<525.08 567.023>
LayerCount: 2
Fore
SplineSet
217.207 705.27 m 0x9c
 208.207 703.27 195.207 700.27 183.207 703.27 c 0
 175.207 705.27 175.207 718.27 186.207 725.27 c 0
 255.207 769.27 287.207 789.27 350.207 821.27 c 0
 368.207 831.27 384.207 835.27 402.207 826.27 c 24
 423.207 816.27 436.207 802.27 437.207 780.27 c 24
 437.207 764.27 419.207 757.27 405.207 754.27 c 0
 344.207 739.27 270.207 720.27 217.207 705.27 c 0x9c
EndSplineSet
Refer: 1068 1043 N 1 0 0 1 0 0 3
Validated: 1
EndChar
StartChar: uni0407
Encoding: 1031 1031 655
Width: 320
VWidth: 0
Flags: W
HStem: -3 24<54.3203 98.3583 234.049 277.734> 429 23<63.6897 93.4601 236.74 267.915> 724 110<43.2998 129.606 233.3 319.606>
VStem: 31.4531 110<735.847 822.153> 128 75<45.4878 409.42> 221.453 110<735.847 822.153>
LayerCount: 2
Fore
SplineSet
276.453 834 m 24xe4
 306.453 834 331.453 809 331.453 779 c 24
 331.453 749 306.453 724 276.453 724 c 24
 246.453 724 221.453 749 221.453 779 c 24
 221.453 809 246.453 834 276.453 834 c 24xe4
86.4531 834 m 24
 116.453 834 141.453 809 141.453 779 c 24
 141.453 749 116.453 724 86.4531 724 c 24
 56.4531 724 31.4531 749 31.4531 779 c 24xf4
 31.4531 809 56.4531 834 86.4531 834 c 24
EndSplineSet
Refer: 654 1030 N 1 0 0 1 0 0 3
Validated: 1
EndChar
StartChar: uni040C
Encoding: 1036 1036 962
Width: 681
VWidth: 0
Flags: W
HStem: -5 29<31.6924 105.863 244.783 312.308 410.035 461.3 608.044 687.308> 323 29<211.012 235.312> 622 31<32.0745 108.441 226.967 296.926 408.311 468.925 576.716 672.827> 761.27 72<394.556 503.277>
VStem: 131 80<50.6023 322.99 352.005 605.863>
LayerCount: 2
Fore
SplineSet
291.236 712.27 m 0
 282.236 710.27 269.236 707.27 257.236 710.27 c 0
 249.236 712.27 249.236 725.27 260.236 732.27 c 0
 329.236 776.27 361.236 796.27 424.236 828.27 c 0
 442.236 838.27 458.236 842.27 476.236 833.27 c 24
 497.236 823.27 510.236 809.27 511.236 787.27 c 24
 511.236 771.27 493.236 764.27 479.236 761.27 c 0
 418.236 746.27 344.236 727.27 291.236 712.27 c 0
EndSplineSet
Refer: 660 1050 N 1 0 0 1 0 0 3
Validated: 1
EndChar
StartChar: uni040E
Encoding: 1038 1038 1127
Width: 622
VWidth: 0
HStem: -40 71<118.094 228.966> 622 30<214.741 270.489 390.101 448.277 568.845 636.955> 692 70<249.589 403.163>
LayerCount: 2
Fore
SplineSet
208.376 825 m 0
 220.376 803 256.376 762 326.376 762 c 0
 396.376 762 432.376 803 444.376 825 c 0
 449.376 834 456.376 846 466.376 846 c 0
 476.376 846 476.376 835 476.376 822 c 0
 476.376 758 406.376 692 326.376 692 c 0
 246.376 692 176.376 747 176.376 822 c 0
 176.376 835 176.376 846 186.376 846 c 0
 196.376 846 203.376 834 208.376 825 c 0
EndSplineSet
Refer: 1126 1059 N 1 0 0 1 0 0 3
Validated: 1
EndChar
StartChar: uni043B
Encoding: 1083 1083 1188
Width: 435
VWidth: 0
Flags: W
HStem: -3 27<-2.00253 54.242 142.802 198.003 254.997 295.998 397.061 442.016>
LayerCount: 2
Fore
SplineSet
66 45 m 0
 77 53 84.8389 72.5 93 92 c 24
 128.987 177.986 131 198 179 315 c 0
 181 321 183.872 330.717 186 341 c 24
 188.56 353.369 190 372 191 373 c 0
 200 375 217 397 223 404 c 0
 231 413 234 418 237 418 c 0
 241 418 242 415 244 409 c 0
 292 278 306 232 353 107 c 0
 361 84 381 36 420 24 c 0
 431.188 20.5576 443 16 443 6 c 0
 443 -4 425 -3 420 -3 c 0
 381 -3 380 2 345 2 c 0
 310 2 316 -3 277 -3 c 0
 272 -3 254 -4 254 6 c 0
 254 16 266 20 277 24 c 0
 297 30 296 31 296 41 c 0
 296 49.5439 289 76 286 89 c 0
 281 114 228 261 217 292 c 0
 211 307 211 307 205 292 c 0
 188 250 154.663 166.465 129 84 c 24
 125.174 71.7061 126 58 130 51 c 0
 141 34 156 30 176 24 c 0
 187 20 199 16 199 6 c 0
 199 -4 181 -3 176 -3 c 0
 137 -3 133 2 98 2 c 0
 63 2 59 -3 20 -3 c 0
 15 -3 -3 -4 -3 6 c 0
 -3 16 9 20 20 24 c 0
 40 30 50.0508 33.4004 66 45 c 0
EndSplineSet
Validated: 33
EndChar
StartChar: uni043C
Encoding: 1084 1084 1168
Width: 720
VWidth: 0
Flags: W
HStem: -3 25<63.4305 108.043 194.751 230.873 472.645 503.031 634.934 671.673> 384 24<81.6118 124.979 603.831 648.924>
VStem: 156 13<79 320>
LayerCount: 2
Fore
SplineSet
375 -1 m 4
 364 -26 337 -18 328 1 c 0
 279 104 249.699 171.427 201 281 c 16
 197 290 193 291 192 281 c 8
 184.11 202.104 174 173 169 79 c 0
 169 61 177.019 52.1915 189 40 c 24
 200.37 28.4307 204 26 226 21 c 0
 232 20 238 -3 226 -3 c 0
 199 -3 179.07 1 149 1 c 24
 117.371 1 92 -3 68 -3 c 0
 60 -3 61 20 68 21 c 0
 90 26 97.3001 26.1685 112 37 c 24
 121.127 43.7246 124 54 125 63 c 0
 142 188 156 262 156 320 c 0
 156 338 157 344 145 358 c 0
 131 374 104 380 87 384 c 0
 79 386 78 410 86 408 c 0
 160 396 225 410 228 403 c 0
 279 275 313 237 367 106 c 0
 372 93 377 91 383 104 c 0
 440 220 446 226 493 342 c 0
 503 365 515 400 520 400 c 0
 527 400 556 400 561 400 c 8
 596.275 400 619 405 651 409 c 0
 658 410 651 389 645 387 c 0
 622 380 621 385 603 373 c 0
 592 365 591.912 354.196 592 341 c 24
 592.697 236.359 594.797 177.145 605 73 c 24
 606.227 60.4824 611.287 52.9899 621 45 c 24
 636.49 32.2578 646 26 667 22 c 0
 673 20 677 -3 667 -3 c 0
 646 -3 619 1 585 1 c 8
 543.631 1 495 -3 479 -3 c 0
 470 -3 470 20 476 22 c 0
 501 29 499.972 31.5215 511 43 c 24
 519.945 52.3105 524.668 60.0928 525 73 c 24
 527.04 152.205 521 182 517 276 c 0
 516 292 513 289 507 276 c 0
 507 276 384 19 375 -1 c 4
EndSplineSet
Validated: 33
EndChar
StartChar: uni04D2
Encoding: 1234 1234 686
Width: 555
VWidth: 0
Flags: W
HStem: -3 24<32.5977 66.9577 182.452 212.952 498.912 529.715> 139 27<198.819 333.7> 443 20<310.5 314> 730 110<239.76 326.066 429.76 516.066>
VStem: 227.913 110<741.847 828.153> 417.913 110<741.847 828.153>
LayerCount: 2
Fore
SplineSet
472.913 840 m 24
 502.913 840 527.913 815 527.913 785 c 24
 527.913 755 502.913 730 472.913 730 c 24
 442.913 730 417.913 755 417.913 785 c 24
 417.913 815 442.913 840 472.913 840 c 24
282.913 840 m 24
 312.913 840 337.913 815 337.913 785 c 24
 337.913 755 312.913 730 282.913 730 c 24
 252.913 730 227.913 755 227.913 785 c 24
 227.913 815 252.913 840 282.913 840 c 24
EndSplineSet
Refer: 657 1040 N 1 0 0 1 0 0 3
Validated: 1
EndChar
StartChar: uni04D6
Encoding: 1238 1238 688
Width: 421
VWidth: 0
Flags: W
HStem: -3 24<11.2984 48.228> 3 36<164.786 334.559> 410 41<161.645 328.992> 429 21<22.3123 57.3167> 724 70<364.886 518.46>
VStem: 79 75<45.5227 217.677 253 406.614> 347 19<347.096 375.298>
LayerCount: 2
Fore
SplineSet
323.673 857 m 0x0e
 335.673 835 371.673 794 441.673 794 c 0
 511.673 794 547.673 835 559.673 857 c 0
 564.673 866 571.673 878 581.673 878 c 0
 591.673 878 591.673 867 591.673 854 c 0
 591.673 790 521.673 724 441.673 724 c 0
 361.673 724 291.673 779 291.673 854 c 0
 291.673 867 291.673 878 301.673 878 c 0
 311.673 878 318.673 866 323.673 857 c 0x0e
EndSplineSet
Refer: 659 1045 N 1 0 0 1 0 0 3
Validated: 1
EndChar
StartChar: uni04E6
Encoding: 1254 1254 690
Width: 605
VWidth: 0
Flags: W
HStem: -15 37<242.335 386.997> 424 32<229.322 364.877> 724.088 110<252.73 339.037 442.73 529.037>
VStem: 66 85<119.755 310.96> 240.884 110<735.935 822.241> 430.884 110<735.935 822.241> 468 84<121.475 314.94>
LayerCount: 2
Fore
SplineSet
485.884 834.088 m 24xfc
 515.884 834.088 540.884 809.088 540.884 779.088 c 24
 540.884 749.088 515.884 724.088 485.884 724.088 c 24
 455.884 724.088 430.884 749.088 430.884 779.088 c 24
 430.884 809.088 455.884 834.088 485.884 834.088 c 24xfc
295.884 834.088 m 24
 325.884 834.088 350.884 809.088 350.884 779.088 c 24
 350.884 749.088 325.884 724.088 295.884 724.088 c 24
 265.884 724.088 240.884 749.088 240.884 779.088 c 24
 240.884 809.088 265.884 834.088 295.884 834.088 c 24
EndSplineSet
Refer: 663 1054 N 1 0 0 1 0 0 3
Validated: 1
EndChar
StartChar: uni1D50
Encoding: 7504 7504 719
Width: 483
VWidth: 0
Flags: W
HStem: 272 25<2.52148 38.6562 97.1875 132.479 173.521 209.234 268.922 305.479 345.521 382.078 441.922 478.479> 485 39<125.181 198.817 296.477 371.123>
VStem: 41 54<297.73 468.76> 211 56<297.73 468.759> 384 56<297.73 475.19>
LayerCount: 2
Fore
SplineSet
440 319 m 2
 440 303 451 301 464 297 c 0
 471 295 479 288 479 282 c 0
 479 276 467 272 464 272 c 0
 439 272 435 272 412 272 c 0
 389 272 385 272 360 272 c 0
 357 272 345 276 345 282 c 0
 345 288 353 295 360 297 c 0
 373 301 384 303 384 319 c 2
 384 428 l 10
 384 457.062 364 485 336 485 c 0
 314 485 296 481 280 469 c 0
 272 464 267 450 267 426 c 2
 267 319 l 2
 267 303 278 301 291 297 c 0
 298 295 306 288 306 282 c 0
 306 276 294 272 291 272 c 0
 266 272 263 272 240 272 c 0
 217 272 213 272 188 272 c 0
 185 272 173 276 173 282 c 0
 173 288 181 295 188 297 c 0
 201 301 211 303 211 319 c 2
 211 428 l 10
 211 456.812 192 485 164 485 c 0
 142 485 124 481 108 469 c 0
 100 464 95 451 95 426 c 0
 95 379 95 356 95 319 c 0
 96 303 105 301 118 297 c 0
 125 295 133 288 133 282 c 0
 133 276 121 272 118 272 c 0
 93 272 90 272 67 272 c 0
 44 272 42 272 17 272 c 0
 14 272 2 276 2 282 c 0
 2 288 10 295 17 297 c 0
 30 301 40 303 41 319 c 0
 41 337 41 414 41 432 c 0
 41 454 41 472 19 476 c 8
 10.1748 477.604 10.2256 497.139 19 499 c 16
 52 506 61 519 82 533 c 0
 85 535 94 531 95 529 c 0
 95 522 90 486 93 482 c 1
 111 497 145 524 196 524 c 4
 227 524 246 512 256 487 c 0
 260 477 265 478 275 489 c 0
 290 505 328 524 369 524 c 0
 411 524 440 498 440 451 c 2
 440 319 l 2
EndSplineSet
Validated: 33
EndChar
StartChar: uni1D57
Encoding: 7511 7511 722
Width: 185
VWidth: 0
Flags: W
HStem: 271 36<95.8518 164.999> 481 38<91.0189 174.511> 481 31<6.24884 30.9453>
VStem: 33 56<310.482 480.917>
LayerCount: 2
Fore
SplineSet
10 481 m 0xb0
 6 482 0 510 5 512 c 0xb0
 32 522 48 543 57 564 c 0
 60.0762 571.179 95 573 95 569 c 10
 91 527 l 18
 90.5166 521.925 97 519 105 519 c 10
 171 519 l 18
 177 519 177 481 171 481 c 10
 115 481 l 17xd0
 85 481 89 480 89 464 c 10
 89 352 l 18
 89 328 101 307 124 307 c 0
 153 307 163 313 173 320 c 0
 178 324 181 303 178 299 c 0
 172 290 137 271 103 271 c 8
 67.5469 271 33 293.547 33 329 c 26
 33 472 l 2
 33 483 24 480 10 481 c 0xb0
EndSplineSet
Validated: 33
EndChar
StartChar: uni1E06
Encoding: 7686 7686 359
Width: 441
VWidth: 0
Flags: W
HStem: -3 33<167.336 261.439> -2 24<11.0317 56.2483> 226 30<156.281 251.954> 421 32<157.017 260.919> 723 54<110.302 400.321>
VStem: 80 75<44.3801 224.002 255.954 398.616> 289 74<280.709 401.848> 300 83<61.4542 200.229>
LayerCount: 2
Fore
SplineSet
130.634 777 m 30x3c
 393.634 777 l 30
 401.085 777 408.99 770.068 406.634 763 c 28
 400.393 744.276 395.37 723 375.634 723 c 30
 120.634 723 l 30
 113.442 723 106.634 729 106.634 735 c 4
 106.634 744 111.769 777 130.634 777 c 30x3c
EndSplineSet
Refer: 30 66 N 1 0 0 1 0 0 3
Validated: 1
EndChar
StartChar: uni1E08
Encoding: 7688 7688 361
Width: 429
VWidth: 0
Flags: W
HStem: -286.6 49<176.47 250.045> -14 9.40039<259.5 290.5> 427 31<184.191 329.172> 776.27 72<418.32 527.041>
VStem: 12 83<132.261 317.163> 269.5 50<-218.312 -135.1>
LayerCount: 2
Fore
SplineSet
315 727.27 m 0
 306 725.27 293 722.27 281 725.27 c 0
 273 727.27 273 740.27 284 747.27 c 0
 353 791.27 385 811.27 448 843.27 c 0
 466 853.27 482 857.27 500 848.27 c 24
 521 838.27 534 824.27 535 802.27 c 24
 535 786.27 517 779.27 503 776.27 c 0
 442 761.27 368 742.27 315 727.27 c 0
EndSplineSet
Refer: 136 199 N 1 0 0 1 0 0 3
Validated: 37
EndChar

StartChar: uni1E0C
Encoding: 7692 7692 365
Width: 519
VWidth: 0
Flags: W
HStem: -179 110<298.847 385.153> -3 36<172.032 337.854> 0 24<18.1875 49.5789> 422 31<142.997 312.128>
VStem: 83 75<45.4952 399.614> 287 110<-167.153 -80.8467> 421 85<131.07 322.825>
LayerCount: 2
Fore
SplineSet
342 -69 m 24x9e
 372 -69 397 -94 397 -124 c 24
 397 -154 372 -179 342 -179 c 24
 312 -179 287 -154 287 -124 c 24
 287 -94 312 -69 342 -69 c 24x9e
EndSplineSet
Refer: 43 68 N 1 0 0 1 0 0 3
Validated: 1
EndChar

StartChar: uni1E10
Encoding: 7696 7696 369
Width: 770
VWidth: 0
Flags: W
HStem: -275 53<283.75 380.871> -6.92949 36.9295<248.835 366.941> -2 22<30.5859 69.4023> 628 31<246.409 435.408> 632 20G<49.5 75>
VStem: 130 80<61.5595 595.421> 391 53<-216.671 -138.332> 634 86<222.409 451.377>
LayerCount: 2
Fore
SplineSet
444 -159 m 0x97
 444 -227 360 -275 315 -275 c 0
 295 -275 286 -275 277 -262 c 0
 267 -249 270 -237 275 -221 c 0
 277 -214 283 -207 289 -210 c 0
 312 -220 336 -222 349 -222 c 0
 366 -222 391 -212 391 -183 c 0
 391 -159 379 -133 344 -131 c 0
 337 -131 328 -130 317 -132 c 0
 310 -133 298 -129 294 -122 c 0
 291 -117 294 -105 298 -100 c 2
 366.941 -6.92949 l 1xd7
 340.135 -6.14818 248.812 0.884174 178 2 c 0
 122.998 2.86669 64 -2 36 -2 c 0
 28 -2 28 18 36 20 c 0
 64.9421 27.2355 82 34 102 54 c 0
 120 72 130 89 130 114 c 0
 130 266 130 364 130 522 c 0
 130 550 128 584 117 596 c 0
 97 617 94 619 55 630 c 0
 47 632 45 652 54 652 c 0xaf
 96 652 120 649 162 649 c 0
 200 649 312 659 340 659 c 0
 611 659 720 530 720 335 c 0
 720 153.706 577.649 8.44916 399.845 -5.84488 c 1
 368 -54 l 2
 363 -61 373 -68 378 -70 c 0
 406 -82 444 -112 444 -159 c 0x97
634 346 m 0
 634 503 502 628 345 628 c 0
 258 628 210 607 210 567 c 0
 210 417 210 270 210 121 c 0
 210 80 224 66 245 50 c 0
 286 19 324 30 376 30 c 0
 535 30 634 187 634 346 c 0
EndSplineSet
Validated: 33
EndChar

StartChar: uni1E11
Encoding: 7697 7697 370
Width: 504
VWidth: 0
Flags: W
HStem: -266.767 50<181.017 257.861> -19 47<182.094 239.98 361.5 446.932> 380 34<171.467 272.547>
VStem: 28 76<107.247 288.108> 269.5 42<-210.621 -139.783> 344 70<60.7126 318.429 403.317 619.433>
LayerCount: 2
Fore
SplineSet
311.5 -156.767 m 0
 311.5 -203.267 251.5 -266.767 206.5 -266.767 c 0
 186.5 -266.767 180 -259.267 175 -252.767 c 0
 170.689 -247.162 168.5 -233.267 168.5 -220.767 c 0
 168.5 -212.967 179.792 -208.767 186.5 -208.767 c 0
 192.5 -208.767 221.5 -216.767 234.5 -216.767 c 0
 251.5 -216.767 269.5 -209.767 269.5 -180.767 c 0
 269.5 -156.767 253 -131.267 218 -129.267 c 0
 211 -129.267 201.5 -129.767 190.5 -131.767 c 0
 183.5 -132.767 176.5 -123.267 172.5 -116.267 c 0
 169.5 -111.267 171.5 -104.767 175.5 -99.7666 c 2
 240.387 -11.6482 l 1
 231.721 -13.1378 222.571 -14 213 -14 c 0
 99 -14 28 74 28 175 c 0
 28 317 109.99 414 260 414 c 0
 330.48 414 343 378.073 343 425 c 2
 343 566 l 2
 343 581 328 632 294 639 c 0
 284.442 640.968 283.492 661.806 293 664 c 0
 386.407 685.558 417.58 715.678 422 698 c 1
 422 686 414 652 414 562 c 2
 414 136 l 2
 414 56 415 28 434 28 c 0
 454 28 477 40 489 40 c 0
 500 40 499 11 489 9 c 0
 440 0 378 -19 364 -19 c 0
 359 -19 354 -12 354 -7 c 0
 354 13 354 43 349 43 c 0
 344 43 344 46 330 32 c 0
 326.984 28.9842 309.052 12.8714 280.813 0.55797 c 1
 240.5 -57.7666 l 2
 235.5 -64.7666 245.5 -71.7666 250.5 -73.7666 c 0
 278.5 -85.7666 311.5 -109.767 311.5 -156.767 c 0
218 380 m 0
 179 380 104 343 104 209 c 0
 104 55 208.998 30.1091 252 31 c 0
 306.997 32.1395 342.343 66.9346 344 115 c 0
 346 173 346 214 344 261 c 0
 341.613 317.092 279 380 218 380 c 0
EndSplineSet
Validated: 33
EndChar
StartChar: uni1E14
Encoding: 7700 7700 373
Width: 421
VWidth: 0
Flags: W
HStem: -3 24<11.2984 48.228> 3 36<164.786 334.559> 410 41<161.645 328.992> 429 21<22.3123 57.3167> 516 60<206.086 455.223> 912.269 72<48.4014 157.123>
VStem: 79 75<45.5227 217.677 253 406.614> 202.192 260 347 19<347.096 375.298>
LayerCount: 2
Fore
SplineSet
260.442 863.269 m 0x0e
 207.442 878.269 133.442 897.269 72.4424 912.269 c 0
 58.4424 915.269 40.4424 922.269 40.4424 938.269 c 24
 41.4424 960.269 54.4424 974.269 75.4424 984.269 c 24
 93.4424 993.269 109.442 989.269 127.442 979.269 c 0
 190.442 947.269 222.442 927.269 291.442 883.269 c 0
 302.442 876.269 302.442 863.269 294.442 861.269 c 0
 282.442 858.269 269.442 861.269 260.442 863.269 c 0x0e
EndSplineSet
Refer: 195 274 N 1 0 0 1 0 0 3
Validated: 33
EndChar
StartChar: uni1E16
Encoding: 7702 7702 375
Width: 421
VWidth: 0
Flags: W
HStem: -3 24<11.2984 48.228> 3 36<164.786 334.559> 410 41<161.645 328.992> 429 21<22.3123 57.3167> 516 60<206.086 455.223> 912.269 72<397.762 506.483>
VStem: 79 75<45.5227 217.677 253 406.614> 202.192 260 347 19<347.096 375.298>
LayerCount: 2
Fore
SplineSet
294.442 863.269 m 0x0e
 285.442 861.269 272.442 858.269 260.442 861.269 c 0
 252.442 863.269 252.442 876.269 263.442 883.269 c 0
 332.442 927.269 364.442 947.269 427.442 979.269 c 0
 445.442 989.269 461.442 993.269 479.442 984.269 c 24
 500.442 974.269 513.442 960.269 514.442 938.269 c 24
 514.442 922.269 496.442 915.269 482.442 912.269 c 0
 421.442 897.269 347.442 878.269 294.442 863.269 c 0x0e
EndSplineSet
Refer: 195 274 N 1 0 0 1 0 0 3
Validated: 33
EndChar
StartChar: uni1E18
Encoding: 7704 7704 377
Width: 421
VWidth: 0
Flags: W
HStem: -3 24<11.2984 48.228> 3 36<164.786 334.559> 410 41<161.645 328.992> 429 21<22.3123 57.3167> 700 21G<123.442 137.442>
VStem: 79 75<45.5227 217.677 253 406.614> 347 19<347.096 375.298>
LayerCount: 2
Fore
SplineSet
281.942 763 m 0x0e
 270.942 770 272.942 770 261.942 763 c 0
 235.942 748 231.942 744 182.942 718 c 0
 170.942 711 143.942 700 130.942 700 c 0
 115.942 700 110.942 712 122.942 722 c 0
 190.942 779 132.942 732 230.942 810 c 0
 250.942 826 256.942 832 271.942 832 c 0
 286.942 832 292.942 826 312.942 810 c 0
 410.942 732 352.942 779 420.942 722 c 0
 432.942 712 427.942 699 412.942 699 c 0
 399.942 699 389.942 707 377.942 714 c 0
 328.942 740 307.942 748 281.942 763 c 0x0e
EndSplineSet
Refer: 35 69 N 1 0 0 1 0 0 3
Validated: 1
EndChar
StartChar: uni1E1C
Encoding: 7708 7708 381
Width: 421
VWidth: 0
Flags: W
HStem: -276.567 53<-94.7496 2.37057> -3 24<11.2984 48.228> 3 36<164.786 334.559> 410 41<161.645 328.992> 429 21<22.3123 57.3167> 724 70<364.933 518.506>
VStem: 12.5 53<-218.238 -139.899> 79 75<45.5227 217.677 253 406.614> 347 19<347.096 375.298>
LayerCount: 2
Fore
SplineSet
323.72 857 m 0x8780
 335.72 835 371.72 794 441.72 794 c 0
 511.72 794 547.72 835 559.72 857 c 0
 564.72 866 571.72 878 581.72 878 c 0
 591.72 878 591.72 867 591.72 854 c 0
 591.72 790 521.72 724 441.72 724 c 0
 361.72 724 291.72 779 291.72 854 c 0
 291.72 867 291.72 878 301.72 878 c 0
 311.72 878 318.72 866 323.72 857 c 0x8780
EndSplineSet
Refer: 333 552 N 1 0 0 1 0 0 3
Validated: 5
EndChar
StartChar: uni1E20
Encoding: 7712 7712 385
Width: 507
VWidth: 0
Flags: W
HStem: -12 36<204.672 351.615> 178 34<300.377 373.835 453.411 491.445> 422 32<207.383 359.691> 723 54<253.668 543.687>
VStem: 20 84<132.931 310.158> 381 62<52.1408 156.612> 381 75<45.6252 162.706>
LayerCount: 2
Fore
SplineSet
274 777 m 30xf8
 537 777 l 30
 544.451 777 552.356 770.068 550 763 c 28
 543.759 744.276 538.736 723 519 723 c 30
 264 723 l 30
 256.809 723 250 729 250 735 c 4
 250 744 255.135 777 274 777 c 30xf8
EndSplineSet
Refer: 40 71 N 1 0 0 1 0 0 3
Validated: 1
EndChar
StartChar: uni1E2C
Encoding: 7724 7724 397
Width: 320
VWidth: 0
Flags: W
HStem: -3 24<54.3203 98.3583 234.049 277.734> 429 23<63.6897 93.4601 236.74 267.915> 737 63<103.686 288.626> 745 63<72.8061 260.72>
VStem: 20.9531 320 128 75<45.4878 409.42>
LayerCount: 2
Fore
SplineSet
20.9531 731 m 0xd8
 46.3574 767.28 92.9531 808 107.953 808 c 0xd8
 132.953 808 239.953 800 264.953 800 c 0
 279.953 800 304.953 815 321.953 837 c 0
 326.953 844 344.802 824.497 340.953 819 c 4
 323.511 794.09 273.953 737 258.953 737 c 0xe8
 233.953 737 121.953 745 96.9531 745 c 0
 81.9531 745 57.9531 731 41.9531 713 c 0
 36.9531 708 17.1035 725.503 20.9531 731 c 0xd8
EndSplineSet
Refer: 33 73 N 1 0 0 1 0 0 3
Validated: 1
EndChar
StartChar: uni1E2E
Encoding: 7726 7726 399
Width: 320
VWidth: 0
Flags: W
HStem: -3 24<54.3203 98.3584 234.049 277.734> 429 23<63.6897 93.4601 236.74 267.915> 512 100<39.2018 117.798 216.202 294.798> 922.269 72<301.273 409.994>
VStem: 28.5 100<522.702 601.298> 128 75<45.4878 409.42> 205.5 100<522.702 601.298>
LayerCount: 2
Fore
SplineSet
197.953 873.269 m 0xf2
 188.953 871.269 175.953 868.269 163.953 871.269 c 0
 155.953 873.269 155.953 886.269 166.953 893.269 c 0
 235.953 937.269 267.953 957.269 330.953 989.269 c 0
 348.953 999.269 364.953 1003.27 382.953 994.269 c 24
 403.953 984.269 416.953 970.269 417.953 948.269 c 24
 417.953 932.269 399.953 925.269 385.953 922.269 c 0
 324.953 907.269 250.953 888.269 197.953 873.269 c 0xf2
EndSplineSet
Refer: 144 207 N 1 0 0 1 0 0 3
Validated: 33
EndChar
StartChar: uni1E30
Encoding: 7728 7728 401
Width: 524
VWidth: 0
Flags: W
HStem: -4 24<30.6966 66.8555 198.959 232.437 293.469 335.03 457.662 502.938> 225 20<173.025 189.046> 418 32<296.566 324.6> 425 25<38.9238 69.6776 192.592 229.989 415.309 468.063> 754 72<359.274 467.995>
VStem: 98 75<47.4944 224.993 245.004 407.713>
LayerCount: 2
Fore
SplineSet
255.954 705 m 0xcc
 246.954 703 233.954 700 221.954 703 c 0
 213.954 705 213.954 718 224.954 725 c 0
 293.954 769 325.954 789 388.954 821 c 0
 406.954 831 422.954 835 440.954 826 c 24
 461.954 816 474.954 802 475.954 780 c 24
 475.954 764 457.954 757 443.954 754 c 0
 382.954 739 308.954 720 255.954 705 c 0xcc
EndSplineSet
Refer: 61 75 N 1 0 0 1 0 0 3
Validated: 33
EndChar
StartChar: uni1E34
Encoding: 7732 7732 405
Width: 524
VWidth: 0
Flags: W
HStem: -4 24<30.6966 66.8555 198.959 232.437 293.469 335.03 457.662 502.938> 225 20<173.025 189.046> 418 32<296.566 324.6> 425 25<38.9238 69.6776 192.592 229.989 415.309 468.063> 723 54<196.622 486.641>
VStem: 98 75<47.4944 224.993 245.004 407.713>
LayerCount: 2
Fore
SplineSet
216.954 777 m 30xcc
 479.954 777 l 30
 487.405 777 495.311 770.068 492.954 763 c 28
 486.713 744.276 481.69 723 461.954 723 c 30
 206.954 723 l 30
 199.763 723 192.954 729 192.954 735 c 4
 192.954 744 198.089 777 216.954 777 c 30xcc
EndSplineSet
Refer: 61 75 N 1 0 0 1 0 0 3
Validated: 1
EndChar
StartChar: uni1E38
Encoding: 7736 7736 409
Width: 444
VWidth: 0
Flags: W
HStem: -1 22<19.3836 56.1625> 2 30<175.271 350.335> 428 24<31.3807 69.0295 192.197 246.501> 700 110<143.226 229.532> 870 54<15.973 305.992>
VStem: 89 75<40.2419 405.613> 131.379 110<711.847 798.153>
LayerCount: 2
Fore
SplineSet
36.3047 924 m 30x38
 299.305 924 l 30
 306.756 924 314.661 917.068 312.305 910 c 28
 306.063 891.276 301.041 870 281.305 870 c 30
 26.3047 870 l 30
 19.1133 870 12.3047 876 12.3047 882 c 4
 12.3047 891 17.4395 924 36.3047 924 c 30x38
EndSplineSet
Refer: 407 7734 N 1 0 0 1 0 0 3
Validated: 1
EndChar
StartChar: uni1E3A
Encoding: 7738 7738 411
Width: 444
VWidth: 0
Flags: W
HStem: -1 22<19.3836 56.1625> 2 30<175.271 350.335> 428 24<31.3807 69.0295 192.197 246.501> 723 54<40.0472 330.066>
VStem: 89 75<40.2419 405.613>
LayerCount: 2
Fore
SplineSet
60.3789 777 m 30x38
 323.379 777 l 30
 330.83 777 338.735 770.068 336.379 763 c 28
 330.138 744.276 325.115 723 305.379 723 c 30
 50.3789 723 l 30
 43.1875 723 36.3789 729 36.3789 735 c 4
 36.3789 744 41.5137 777 60.3789 777 c 30x38
EndSplineSet
Refer: 36 76 N 1 0 0 1 0 0 3
Validated: 1
EndChar
StartChar: uni1E3C
Encoding: 7740 7740 413
Width: 444
VWidth: 0
Flags: W
HStem: -1 22<19.3836 56.1625> 2 30<175.271 350.335> 428 24<31.3807 69.0295 192.197 246.501> 700 21G<37.8789 51.8789>
VStem: 89 75<40.2419 405.613>
LayerCount: 2
Fore
SplineSet
196.379 763 m 0x38
 185.379 770 187.379 770 176.379 763 c 0
 150.379 748 146.379 744 97.3789 718 c 0
 85.3789 711 58.3789 700 45.3789 700 c 0
 30.3789 700 25.3789 712 37.3789 722 c 0
 105.379 779 47.3789 732 145.379 810 c 0
 165.379 826 171.379 832 186.379 832 c 0
 201.379 832 207.379 826 227.379 810 c 0
 325.379 732 267.379 779 335.379 722 c 0
 347.379 712 342.379 699 327.379 699 c 0
 314.379 699 304.379 707 292.379 714 c 0
 243.379 740 222.379 748 196.379 763 c 0x38
EndSplineSet
Refer: 36 76 N 1 0 0 1 0 0 3
Validated: 1
EndChar
StartChar: uni1E3E
Encoding: 7742 7742 415
Width: 720
VWidth: 0
Flags: W
HStem: -3 25<50.4305 95.0426 181.751 217.873 482.645 513.031 649.934 686.673> 431 24<68.6118 111.979 618.831 663.924> 754 72<465.2 573.921>
LayerCount: 2
Fore
SplineSet
361.88 705 m 0
 352.88 703 339.88 700 327.88 703 c 0
 319.88 705 319.88 718 330.88 725 c 0
 399.88 769 431.88 789 494.88 821 c 0
 512.88 831 528.88 835 546.88 826 c 24
 567.88 816 580.88 802 581.88 780 c 24
 581.88 764 563.88 757 549.88 754 c 0
 488.88 739 414.88 720 361.88 705 c 0
EndSplineSet
Refer: 27 77 N 1 0 0 1 0 0 3
Validated: 33
EndChar
StartChar: uni1E48
Encoding: 7752 7752 425
Width: 631
VWidth: 0
Flags: W
HStem: -14 21<510.919 529.176> -3 24<62.3025 102.76 192.857 225.931> 425 24<52.9092 103.383 431.989 469.611 576.188 609.063> 723 54<243.417 533.436>
VStem: 129 46<86.0745 336.475> 507 40<109.998 403.448>
LayerCount: 2
Fore
SplineSet
263.749 777 m 30x3c
 526.749 777 l 30
 534.2 777 542.105 770.068 539.749 763 c 28
 533.508 744.276 528.485 723 508.749 723 c 30
 253.749 723 l 30
 246.558 723 239.749 729 239.749 735 c 4
 239.749 744 244.884 777 263.749 777 c 30x3c
EndSplineSet
Refer: 28 78 N 1 0 0 1 0 0 3
Validated: 1
EndChar
StartChar: uni1E4A
Encoding: 7754 7754 427
Width: 631
VWidth: 0
Flags: W
HStem: -14 21<510.919 529.176> -3 24<62.3025 102.76 192.857 225.931> 425 24<52.9092 103.383 431.989 469.611 576.188 609.063> 700 21G<241.249 255.249>
VStem: 129 46<86.0745 336.475> 507 40<109.998 403.448>
LayerCount: 2
Fore
SplineSet
399.749 763 m 0x3c
 388.749 770 390.749 770 379.749 763 c 0
 353.749 748 349.749 744 300.749 718 c 0
 288.749 711 261.749 700 248.749 700 c 0
 233.749 700 228.749 712 240.749 722 c 0
 308.749 779 250.749 732 348.749 810 c 0
 368.749 826 374.749 832 389.749 832 c 0
 404.749 832 410.749 826 430.749 810 c 0
 528.749 732 470.749 779 538.749 722 c 0
 550.749 712 545.749 699 530.749 699 c 0
 517.749 699 507.749 707 495.749 714 c 0
 446.749 740 425.749 748 399.749 763 c 0x3c
EndSplineSet
Refer: 28 78 N 1 0 0 1 0 0 3
Validated: 1
EndChar
StartChar: uni1E4C
Encoding: 7756 7756 429
Width: 605
VWidth: 0
Flags: W
HStem: -15 37<242.335 386.997> 424 32<229.322 364.877> 515 66<261.585 396.262> 528 67<233.463 368.915> 932.755 72<641.401 750.122>
VStem: 66 85<119.755 310.96> 182 266 468 84<121.475 314.94>
LayerCount: 2
Fore
SplineSet
538.081 883.755 m 0xcf
 529.081 881.755 516.081 878.755 504.081 881.755 c 0
 496.081 883.755 496.081 896.755 507.081 903.755 c 0
 576.081 947.755 608.081 967.755 671.081 999.755 c 0
 689.081 1009.75 705.081 1013.75 723.081 1004.75 c 24
 744.081 994.755 757.081 980.755 758.081 958.755 c 24
 758.081 942.755 740.081 935.755 726.081 932.755 c 0
 665.081 917.755 591.081 898.755 538.081 883.755 c 0xcf
EndSplineSet
Refer: 149 213 N 1 0 0 1 0 0 3
Validated: 33
EndChar
StartChar: uni1E4E
Encoding: 7758 7758 431
Width: 605
VWidth: 0
Flags: W
HStem: -15 37<242.335 386.997> 424 32<229.322 364.877> 515 66<261.585 396.262> 528 67<233.463 368.915> 880.486 110<382.928 469.234 572.928 659.234>
VStem: 66 85<119.755 310.96> 182 266 371.081 110<892.333 978.64> 468 84<121.475 314.94> 561.081 110<892.333 978.64>
LayerCount: 2
Fore
SplineSet
616.081 990.486 m 24xcc40
 646.081 990.486 671.081 965.486 671.081 935.486 c 24
 671.081 905.486 646.081 880.486 616.081 880.486 c 24
 586.081 880.486 561.081 905.486 561.081 935.486 c 24
 561.081 965.486 586.081 990.486 616.081 990.486 c 24xcc40
426.081 990.486 m 24
 456.081 990.486 481.081 965.486 481.081 935.486 c 24
 481.081 905.486 456.081 880.486 426.081 880.486 c 24
 396.081 880.486 371.081 905.486 371.081 935.486 c 24xcd40
 371.081 965.486 396.081 990.486 426.081 990.486 c 24
EndSplineSet
Refer: 149 213 N 1 0 0 1 0 0 3
Validated: 1
EndChar
StartChar: uni1E50
Encoding: 7760 7760 433
Width: 605
VWidth: 0
Flags: W
HStem: -15 37<242.335 386.997> 424 32<229.322 364.877> 516 60<176.737 425.875> 912.269 72<153.459 262.18>
VStem: 66 85<119.755 310.96> 172.844 260 468 84<121.475 314.94>
LayerCount: 2
Fore
SplineSet
365.5 863.269 m 0
 312.5 878.269 238.5 897.269 177.5 912.269 c 0
 163.5 915.269 145.5 922.269 145.5 938.269 c 24
 146.5 960.269 159.5 974.269 180.5 984.269 c 24
 198.5 993.269 214.5 989.269 232.5 979.269 c 0
 295.5 947.269 327.5 927.269 396.5 883.269 c 0
 407.5 876.269 407.5 863.269 399.5 861.269 c 0
 387.5 858.269 374.5 861.269 365.5 863.269 c 0
EndSplineSet
Refer: 241 332 N 1 0 0 1 0 0 3
Validated: 33
EndChar
StartChar: uni1E52
Encoding: 7762 7762 435
Width: 605
VWidth: 0
Flags: W
HStem: -15 37<242.335 386.997> 424 32<229.322 364.877> 516 60<176.737 425.875> 912.269 72<502.82 611.541>
VStem: 66 85<119.755 310.96> 172.844 260 468 84<121.475 314.94>
LayerCount: 2
Fore
SplineSet
399.5 863.269 m 0
 390.5 861.269 377.5 858.269 365.5 861.269 c 0
 357.5 863.269 357.5 876.269 368.5 883.269 c 0
 437.5 927.269 469.5 947.269 532.5 979.269 c 0
 550.5 989.269 566.5 993.269 584.5 984.269 c 24
 605.5 974.269 618.5 960.269 619.5 938.269 c 24
 619.5 922.269 601.5 915.269 587.5 912.269 c 0
 526.5 897.269 452.5 878.269 399.5 863.269 c 0
EndSplineSet
Refer: 241 332 N 1 0 0 1 0 0 3
Validated: 33
EndChar
StartChar: uni1E54
Encoding: 7764 7764 437
Width: 468
VWidth: 0
Flags: W
HStem: -3 28<47.0864 89.2581 215.97 257.384> 184 16<221.885 287.262> 424 29<193.049 306.797> 754 72<301.952 410.673>
VStem: 114 75<42.0916 400.614> 356 82<245.048 387.146>
LayerCount: 2
Fore
SplineSet
198.632 705 m 0
 189.632 703 176.632 700 164.632 703 c 0
 156.632 705 156.632 718 167.632 725 c 0
 236.632 769 268.632 789 331.632 821 c 0
 349.632 831 365.632 835 383.632 826 c 24
 404.632 816 417.632 802 418.632 780 c 24
 418.632 764 400.632 757 386.632 754 c 0
 325.632 739 251.632 720 198.632 705 c 0
EndSplineSet
Refer: 26 80 N 1 0 0 1 0 0 3
Validated: 33
EndChar
StartChar: uni1E56
Encoding: 7766 7766 439
Width: 468
VWidth: 0
Flags: W
HStem: -3 28<47.0864 89.2581 215.97 257.384> 184 16<221.885 287.262> 424 29<193.049 306.797> 700 110<242.479 328.785>
VStem: 114 75<42.0916 400.614> 230.632 110<711.847 798.153> 356 82<245.048 387.146>
LayerCount: 2
Fore
SplineSet
285.632 810 m 24
 315.632 810 340.632 785 340.632 755 c 24
 340.632 725 315.632 700 285.632 700 c 24
 255.632 700 230.632 725 230.632 755 c 24
 230.632 785 255.632 810 285.632 810 c 24
EndSplineSet
Refer: 26 80 N 1 0 0 1 0 0 3
Validated: 1
EndChar
StartChar: uni1E5E
Encoding: 7774 7774 447
Width: 547
VWidth: 0
Flags: W
HStem: -14 35<429.98 499.568> -4 25<14.438 48.7442 199.518 228.809> 424 29<25.5276 65.644 166.038 261.371> 723 54<136.334 426.353>
VStem: 82 75<44.9388 203.042 233.012 401.614> 294 84<269.317 397.487>
LayerCount: 2
Fore
SplineSet
156.666 777 m 30x3c
 419.666 777 l 30
 427.117 777 435.022 770.068 432.666 763 c 28
 426.425 744.276 421.402 723 401.666 723 c 30
 146.666 723 l 30
 139.475 723 132.666 729 132.666 735 c 4
 132.666 744 137.801 777 156.666 777 c 30x3c
EndSplineSet
Refer: 29 82 N 1 0 0 1 0 0 3
Validated: 1
EndChar
StartChar: uni1E64
Encoding: 7780 7780 453
Width: 373
VWidth: 0
Flags: W
HStem: -11 35<115.496 225.454> 423 35<143.458 252.654> 518 215 891.014 110<282.719 369.025>
VStem: 53 74<318.853 396.396> 192 178 247 84<53.416 148.023> 270.872 110<902.86 989.167> 288 32<337.527 385.485>
LayerCount: 2
Fore
SplineSet
325.872 1001.01 m 24xf9
 355.872 1001.01 380.872 976.014 380.872 946.014 c 24
 380.872 916.014 355.872 891.014 325.872 891.014 c 24
 295.872 891.014 270.872 916.014 270.872 946.014 c 24
 270.872 976.014 295.872 1001.01 325.872 1001.01 c 24xf9
EndSplineSet
Refer: 253 346 N 1 0 0 1 0 0 3
Validated: 1
EndChar
StartChar: uni1E6C
Encoding: 7788 7788 461
Width: 489
VWidth: 0
Flags: W
HStem: -178 110<295.163 381.47> -3 25<121.73 164.086 296.914 339.703> 406 41<72.246 180.16 268.66 420.189>
VStem: 23 34<358.276 395.937> 193 75<46.4591 403.896> 283.316 110<-166.153 -79.8467> 424 28<347.656 398.928>
LayerCount: 2
Fore
SplineSet
338.316 -68 m 24
 368.316 -68 393.316 -93 393.316 -123 c 24
 393.316 -153 368.316 -178 338.316 -178 c 24
 308.316 -178 283.316 -153 283.316 -123 c 24
 283.316 -93 308.316 -68 338.316 -68 c 24
EndSplineSet
Refer: 34 84 N 1 0 0 1 0 0 3
Validated: 1
EndChar
StartChar: uni1E6E
Encoding: 7790 7790 463
Width: 489
VWidth: 0
Flags: W
HStem: -3 25<121.73 164.086 296.914 339.703> 406 41<72.246 180.16 268.66 420.189> 723 54<194.985 485.004>
VStem: 23 34<358.276 395.937> 193 75<46.4591 403.896> 424 28<347.656 398.928>
LayerCount: 2
Fore
SplineSet
215.316 777 m 30
 478.316 777 l 30
 485.768 777 493.672 770.068 491.316 763 c 28
 485.075 744.276 480.053 723 460.316 723 c 30
 205.316 723 l 30
 198.125 723 191.316 729 191.316 735 c 4
 191.316 744 196.451 777 215.316 777 c 30
EndSplineSet
Refer: 34 84 N 1 0 0 1 0 0 3
Validated: 1
EndChar
StartChar: uni1E70
Encoding: 7792 7792 465
Width: 489
VWidth: 0
Flags: W
HStem: -3 25<121.73 164.086 296.914 339.703> 406 41<72.246 180.16 268.66 420.189> 700 21G<192.816 206.816>
VStem: 23 34<358.276 395.937> 193 75<46.4591 403.896> 424 28<347.656 398.928>
LayerCount: 2
Fore
SplineSet
351.316 763 m 0
 340.316 770 342.316 770 331.316 763 c 0
 305.316 748 301.316 744 252.316 718 c 0
 240.316 711 213.316 700 200.316 700 c 0
 185.316 700 180.316 712 192.316 722 c 0
 260.316 779 202.316 732 300.316 810 c 0
 320.316 826 326.316 832 341.316 832 c 0
 356.316 832 362.316 826 382.316 810 c 0
 480.316 732 422.316 779 490.316 722 c 0
 502.316 712 497.316 699 482.316 699 c 0
 469.316 699 459.316 707 447.316 714 c 0
 398.316 740 377.316 748 351.316 763 c 0
EndSplineSet
Refer: 34 84 N 1 0 0 1 0 0 3
Validated: 1
EndChar
StartChar: uni1E78
Encoding: 7800 7800 473
Width: 563
VWidth: 0
Flags: W
HStem: -13 35<238.389 374.945> 425 25<35.0211 68.4721 167.691 200.01 380.363 415.874 499.32 542.199> 532.908 73<490.782 631.38> 548.908 73<450.851 591.905> 899.755 72<408.776 517.497>
VStem: 80 75<101.856 419.064> 409.967 260 431 44<89.461 410.762>
LayerCount: 2
Fore
SplineSet
305.456 850.755 m 0xcc
 296.456 848.755 283.456 845.755 271.456 848.755 c 0
 263.456 850.755 263.456 863.755 274.456 870.755 c 0
 343.456 914.755 375.456 934.755 438.456 966.755 c 0
 456.456 976.755 472.456 980.755 490.456 971.755 c 24
 511.456 961.755 524.456 947.755 525.456 925.755 c 24
 525.456 909.755 507.456 902.755 493.456 899.755 c 0
 432.456 884.755 358.456 865.755 305.456 850.755 c 0xcc
EndSplineSet
Refer: 265 360 N 1 0 0 1 0 0 3
Validated: 33
EndChar

StartChar: uni1E7A
Encoding: 7802 7802 475
Width: 563
VWidth: 0
Flags: W
HStem: -13 35<238.389 374.945> 425 25<35.0211 68.4721 167.691 200.01 380.363 415.874 499.32 542.199> 516 60<413.737 662.875> 860 110<250.722 337.028 440.722 527.028>
VStem: 80 75<101.856 419.064> 238.875 110<871.847 958.153> 409.844 260 428.875 110<871.847 958.153> 431 44<89.461 410.762>
LayerCount: 2
Fore
SplineSet
483.875 970 m 24xfd
 513.875 970 538.875 945 538.875 915 c 24
 538.875 885 513.875 860 483.875 860 c 24
 453.875 860 428.875 885 428.875 915 c 24
 428.875 945 453.875 970 483.875 970 c 24xfd
293.875 970 m 24
 323.875 970 348.875 945 348.875 915 c 24
 348.875 885 323.875 860 293.875 860 c 24
 263.875 860 238.875 885 238.875 915 c 24
 238.875 945 263.875 970 293.875 970 c 24
EndSplineSet
Refer: 267 362 N 1 0 0 1 0 0 3
Validated: 1
EndChar

StartChar: Wdieresis
Encoding: 7812 7812 485
Width: 719
VWidth: 0
Flags: W
HStem: 425 23<9.83059 40.5764 151.975 197.041 218.111 254.615 471.288 519.559 540.984 576.861 656.654 698.004> 700 110<342.597 428.903 532.597 618.903>
VStem: 330.75 110<711.847 798.153> 520.75 110<711.847 798.153>
LayerCount: 2
Fore
SplineSet
575.75 810 m 24
 605.75 810 630.75 785 630.75 755 c 24
 630.75 725 605.75 700 575.75 700 c 24
 545.75 700 520.75 725 520.75 755 c 24
 520.75 785 545.75 810 575.75 810 c 24
385.75 810 m 24
 415.75 810 440.75 785 440.75 755 c 24
 440.75 725 415.75 700 385.75 700 c 24
 355.75 700 330.75 725 330.75 755 c 24
 330.75 785 355.75 810 385.75 810 c 24
EndSplineSet
Refer: 38 87 N 1 0 0 1 0 0 3
Validated: 1
EndChar
StartChar: uni1E8A
Encoding: 7818 7818 491
Width: 543
VWidth: 0
Flags: W
HStem: -3 25<29.7561 76.4045 163.306 204.768 279.048 328.52 461.198 502.169> 424 25<44.5154 100.871 206.767 243.127 335.674 361.286> 700 110<328.107 414.414>
VStem: 316.261 110<711.847 798.153>
LayerCount: 2
Fore
SplineSet
371.261 810 m 24
 401.261 810 426.261 785 426.261 755 c 24
 426.261 725 401.261 700 371.261 700 c 24
 341.261 700 316.261 725 316.261 755 c 24
 316.261 785 341.261 810 371.261 810 c 24
EndSplineSet
Refer: 63 88 N 1 0 0 1 0 0 3
Validated: 1
EndChar
StartChar: uni1E8C
Encoding: 7820 7820 493
Width: 543
VWidth: 0
Flags: W
HStem: -3 25<29.7561 76.4045 163.306 204.768 279.048 328.52 461.198 502.169> 424 25<44.5154 100.871 206.767 243.127 335.674 361.286> 700 110<233.107 319.414 423.107 509.414>
VStem: 221.261 110<711.847 798.153> 411.261 110<711.847 798.153>
LayerCount: 2
Fore
SplineSet
466.261 810 m 24
 496.261 810 521.261 785 521.261 755 c 24
 521.261 725 496.261 700 466.261 700 c 24
 436.261 700 411.261 725 411.261 755 c 24
 411.261 785 436.261 810 466.261 810 c 24
276.261 810 m 24
 306.261 810 331.261 785 331.261 755 c 24
 331.261 725 306.261 700 276.261 700 c 24
 246.261 700 221.261 725 221.261 755 c 24
 221.261 785 246.261 810 276.261 810 c 24
EndSplineSet
Refer: 63 88 N 1 0 0 1 0 0 3
Validated: 1
EndChar
StartChar: uni1E8E
Encoding: 7822 7822 495
Width: 494
VWidth: 0
Flags: W
HStem: -4 27<127.655 172.989 302.406 347.107> 426 24<23.6411 60.8134 166.547 201.245 302.585 337.089 417.265 457.175> 700 110<271.518 357.824>
VStem: 200 75<47.4598 248.634> 259.671 110<711.847 798.153>
LayerCount: 2
Fore
SplineSet
314.671 810 m 24xe8
 344.671 810 369.671 785 369.671 755 c 24
 369.671 725 344.671 700 314.671 700 c 24
 284.671 700 259.671 725 259.671 755 c 24
 259.671 785 284.671 810 314.671 810 c 24xe8
EndSplineSet
Refer: 49 89 N 1 0 0 1 0 0 3
Validated: 1
EndChar
StartChar: uni1E90
Encoding: 7824 7824 497
Width: 466
VWidth: 0
Flags: W
HStem: -3 42<162.888 381.386> -2 19<31.8216 38.9008> 418 33<101.291 300.976> 700 21G<186.389 200.389>
VStem: 44 35<355.125 403.266>
LayerCount: 2
Fore
SplineSet
344.889 763 m 0x38
 333.889 770 335.889 770 324.889 763 c 0
 298.889 748 294.889 744 245.889 718 c 0
 233.889 711 206.889 700 193.889 700 c 0
 178.889 700 173.889 712 185.889 722 c 0
 253.889 779 195.889 732 293.889 810 c 0
 313.889 826 319.889 832 334.889 832 c 0
 349.889 832 355.889 826 375.889 810 c 0
 473.889 732 415.889 779 483.889 722 c 0
 495.889 712 490.889 699 475.889 699 c 0
 462.889 699 452.889 707 440.889 714 c 0
 391.889 740 370.889 748 344.889 763 c 0x38
EndSplineSet
Refer: 64 90 N 1 0 0 1 0 0 3
Validated: 1
EndChar
StartChar: uni1E92
Encoding: 7826 7826 499
Width: 466
VWidth: 0
Flags: W
HStem: -3 42<162.888 381.386> -2 19<31.8216 38.9008> 418 33<101.291 300.976> 705 110<263.735 350.042>
VStem: 44 35<355.125 403.266> 251.889 110<716.847 803.153>
LayerCount: 2
Fore
SplineSet
306.889 815 m 24x3c
 336.889 815 361.889 790 361.889 760 c 24
 361.889 730 336.889 705 306.889 705 c 24
 276.889 705 251.889 730 251.889 760 c 24
 251.889 790 276.889 815 306.889 815 c 24x3c
EndSplineSet
Refer: 64 90 N 1 0 0 1 0 0 3
Validated: 1
EndChar
StartChar: uni1E94
Encoding: 7828 7828 501
Width: 466
VWidth: 0
Flags: W
HStem: -3 42<162.888 381.386> -2 19<31.8216 38.9008> 418 33<101.291 300.976> 723 54<188.557 478.576>
VStem: 44 35<355.125 403.266>
LayerCount: 2
Fore
SplineSet
208.889 777 m 30x38
 471.889 777 l 30
 479.34 777 487.245 770.068 484.889 763 c 28
 478.647 744.276 473.625 723 453.889 723 c 30
 198.889 723 l 30
 191.697 723 184.889 729 184.889 735 c 4
 184.889 744 190.023 777 208.889 777 c 30x38
EndSplineSet
Refer: 64 90 N 1 0 0 1 0 0 3
Validated: 1
EndChar
StartChar: uni1EAA
Encoding: 7850 7850 514
Width: 555
VWidth: 0
Flags: W
HStem: -3 24<32.5977 66.9576 182.452 212.952 498.912 529.715> 139 27<198.819 333.7> 443 20<310.5 314> 502 201 935.977 63<285.635 470.575> 943.977 63<254.755 442.669>
VStem: 182 212
LayerCount: 2
Fore
SplineSet
202.902 929.977 m 0xf6
 228.306 966.257 274.902 1006.98 289.902 1006.98 c 0xf6
 314.902 1006.98 421.902 998.977 446.902 998.977 c 0
 461.902 998.977 486.902 1013.98 503.902 1035.98 c 0
 508.902 1042.98 526.751 1023.47 522.902 1017.98 c 4
 505.46 993.067 455.902 935.977 440.902 935.977 c 0xfa
 415.902 935.977 303.902 943.977 278.902 943.977 c 0
 263.902 943.977 239.902 929.977 223.902 911.977 c 0
 218.902 906.977 199.053 924.48 202.902 929.977 c 0xf6
EndSplineSet
Refer: 132 194 N 1 0 0 1 0 0 3
Validated: 1
EndChar
StartChar: uni1EAC
Encoding: 7852 7852 516
Width: 555
VWidth: 0
Flags: W
HStem: -3 24<32.5977 66.9577 182.452 212.952 498.912 529.715> 139 27<198.819 333.7> 443 20<310.5 314> 700 110<319.76 406.066>
VStem: 307.913 110<711.847 798.153>
LayerCount: 2
Fore
SplineSet
372.913 934 m 0
 361.913 941 363.913 941 352.913 934 c 0
 326.913 919 322.913 915 273.913 889 c 0
 261.913 882 234.913 871 221.913 871 c 0
 206.913 871 201.913 883 213.913 893 c 0
 281.913 950 223.913 903 321.913 981 c 0
 341.913 997 347.913 1003 362.913 1003 c 0
 377.913 1003 383.913 997 403.913 981 c 0
 501.913 903 443.913 950 511.913 893 c 0
 523.913 883 518.913 870 503.913 870 c 0
 490.913 870 480.913 878 468.913 885 c 0
 419.913 911 398.913 919 372.913 934 c 0
EndSplineSet
Refer: 508 7840 N 1 0 0 1 0 0 3
Validated: 1
EndChar
StartChar: uni1EAE
Encoding: 7854 7854 518
Width: 555
VWidth: 0
Flags: W
HStem: -3 24<32.5977 66.9577 182.452 212.952 498.912 529.715> 139 27<198.819 333.7> 443 20<310.5 314> 523 55<258.618 365.382> 958.269 72<483.233 591.954>
VStem: 205 32<609.396 662.922> 387 32<610.031 662.922>
LayerCount: 2
Fore
SplineSet
379.913 909.269 m 0
 370.913 907.269 357.913 904.269 345.913 907.269 c 0
 337.913 909.269 337.913 922.269 348.913 929.269 c 0
 417.913 973.269 449.913 993.269 512.913 1025.27 c 0
 530.913 1035.27 546.913 1039.27 564.913 1030.27 c 24
 585.913 1020.27 598.913 1006.27 599.913 984.269 c 24
 599.913 968.269 581.913 961.269 567.913 958.269 c 0
 506.913 943.269 432.913 924.269 379.913 909.269 c 0
EndSplineSet
Refer: 181 258 N 1 0 0 1 0 0 3
Validated: 33
EndChar
StartChar: uni1EB0
Encoding: 7856 7856 520
Width: 555
VWidth: 0
Flags: W
HStem: -3 24<32.5977 66.9577 182.452 212.952 498.912 529.715> 139 27<198.819 333.7> 443 20<310.5 314> 523 55<258.618 365.382> 958.269 72<133.872 242.593>
VStem: 205 32<609.396 662.922> 387 32<610.031 662.922>
LayerCount: 2
Fore
SplineSet
345.913 909.269 m 0
 292.913 924.269 218.913 943.269 157.913 958.269 c 0
 143.913 961.269 125.913 968.269 125.913 984.269 c 24
 126.913 1006.27 139.913 1020.27 160.913 1030.27 c 24
 178.913 1039.27 194.913 1035.27 212.913 1025.27 c 0
 275.913 993.269 307.913 973.269 376.913 929.269 c 0
 387.913 922.269 387.913 909.269 379.913 907.269 c 0
 367.913 904.269 354.913 907.269 345.913 909.269 c 0
EndSplineSet
Refer: 181 258 N 1 0 0 1 0 0 3
Validated: 33
EndChar
StartChar: uni1EB4
Encoding: 7860 7860 522
Width: 555
VWidth: 0
Flags: W
HStem: -3 24<32.5977 66.9577 182.452 212.952 498.912 529.715> 139 27<198.819 333.7> 443 20<310.5 314> 523 55<258.618 365.382> 949.977 63<285.635 470.575> 957.977 63<254.755 442.669>
VStem: 205 32<609.396 662.922> 387 32<610.031 662.922>
LayerCount: 2
Fore
SplineSet
202.902 943.977 m 0xf7
 228.306 980.257 274.902 1020.98 289.902 1020.98 c 0xf7
 314.902 1020.98 421.902 1012.98 446.902 1012.98 c 0
 461.902 1012.98 486.902 1027.98 503.902 1049.98 c 0
 508.902 1056.98 526.751 1037.47 522.902 1031.98 c 4
 505.46 1007.07 455.902 949.977 440.902 949.977 c 0xfb
 415.902 949.977 303.902 957.977 278.902 957.977 c 0
 263.902 957.977 239.902 943.977 223.902 925.977 c 0
 218.902 920.977 199.053 938.48 202.902 943.977 c 0xf7
EndSplineSet
Refer: 181 258 N 1 0 0 1 0 0 3
Validated: 1
EndChar
StartChar: uni1EB6
Encoding: 7862 7862 524
Width: 555
VWidth: 0
Flags: W
HStem: -3 24<32.5977 66.9577 182.452 212.952 498.912 529.715> 139 27<198.819 333.7> 443 20<310.5 314> 700 110<319.76 406.066> 870 70<286.126 439.7>
VStem: 307.913 110<711.847 798.153>
LayerCount: 2
Fore
SplineSet
244.913 1003 m 0
 256.913 981 292.913 940 362.913 940 c 0
 432.913 940 468.913 981 480.913 1003 c 0
 485.913 1012 492.913 1024 502.913 1024 c 0
 512.913 1024 512.913 1013 512.913 1000 c 0
 512.913 936 442.913 870 362.913 870 c 0
 282.913 870 212.913 925 212.913 1000 c 0
 212.913 1013 212.913 1024 222.913 1024 c 0
 232.913 1024 239.913 1012 244.913 1003 c 0
EndSplineSet
Refer: 508 7840 N 1 0 0 1 0 0 3
Validated: 1
EndChar
StartChar: uni1EBE
Encoding: 7870 7870 530
Width: 421
VWidth: 0
Flags: W
HStem: -3 24<11.2984 48.2279> 3 36<164.786 334.559> 410 41<161.645 328.992> 429 21<22.3123 57.3167> 504 201 944.269 72<392.262 500.983>
VStem: 79 75<45.5227 217.677 253 406.614> 100 212 347 19<347.096 375.298>
LayerCount: 2
Fore
SplineSet
288.942 895.269 m 0x0c80
 279.942 893.269 266.942 890.269 254.942 893.269 c 0
 246.942 895.269 246.942 908.269 257.942 915.269 c 0
 326.942 959.269 358.942 979.269 421.942 1011.27 c 0
 439.942 1021.27 455.942 1025.27 473.942 1016.27 c 24
 494.942 1006.27 507.942 992.269 508.942 970.269 c 24
 508.942 954.269 490.942 947.269 476.942 944.269 c 0
 415.942 929.269 341.942 910.269 288.942 895.269 c 0x0c80
EndSplineSet
Refer: 139 202 N 1 0 0 1 0 0 3
Validated: 33
EndChar
StartChar: uni1EC0
Encoding: 7872 7872 532
Width: 421
VWidth: 0
Flags: W
HStem: -3 24<11.2984 48.2279> 3 36<164.786 334.559> 410 41<161.645 328.992> 429 21<22.3123 57.3167> 504 201 944.269 72<42.9014 151.623>
VStem: 79 75<45.5227 217.677 253 406.614> 100 212 347 19<347.096 375.298>
LayerCount: 2
Fore
SplineSet
254.942 895.269 m 0x0c80
 201.942 910.269 127.942 929.269 66.9424 944.269 c 0
 52.9424 947.269 34.9424 954.269 34.9424 970.269 c 24
 35.9424 992.269 48.9424 1006.27 69.9424 1016.27 c 24
 87.9424 1025.27 103.942 1021.27 121.942 1011.27 c 0
 184.942 979.269 216.942 959.269 285.942 915.269 c 0
 296.942 908.269 296.942 895.269 288.942 893.269 c 0
 276.942 890.269 263.942 893.269 254.942 895.269 c 0x0c80
EndSplineSet
Refer: 139 202 N 1 0 0 1 0 0 3
Validated: 33
EndChar
StartChar: uni1EC4
Encoding: 7876 7876 534
Width: 421
VWidth: 0
Flags: W
HStem: -3 24<11.2984 48.2279> 3 36<164.786 334.559> 410 41<161.645 328.992> 429 21<22.3123 57.3167> 504 201 935.977 63<194.664 379.604> 943.977 63<163.784 351.698>
VStem: 79 75<45.5227 217.677 253 406.614> 100 212 347 19<347.096 375.298>
LayerCount: 2
Fore
SplineSet
111.931 929.977 m 0x0a40
 137.335 966.257 183.931 1006.98 198.931 1006.98 c 0x0a40
 223.931 1006.98 330.931 998.977 355.931 998.977 c 0
 370.931 998.977 395.931 1013.98 412.931 1035.98 c 0
 417.931 1042.98 435.779 1023.47 431.931 1017.98 c 4
 414.488 993.067 364.931 935.977 349.931 935.977 c 0x0c40
 324.931 935.977 212.931 943.977 187.931 943.977 c 0
 172.931 943.977 148.931 929.977 132.931 911.977 c 0
 127.931 906.977 108.082 924.48 111.931 929.977 c 0x0a40
EndSplineSet
Refer: 139 202 N 1 0 0 1 0 0 3
Validated: 1
EndChar
StartChar: uni1EC6
Encoding: 7878 7878 536
Width: 421
VWidth: 0
Flags: W
HStem: -3 24<11.2984 48.228> 3 36<164.786 334.559> 410 41<161.645 328.992> 429 21<22.3123 57.3167> 700 110<228.789 315.096>
VStem: 79 75<45.5227 217.677 253 406.614> 216.942 110<711.847 798.153> 347 19<347.096 375.298>
LayerCount: 2
Fore
SplineSet
281.942 934 m 0x0f
 270.942 941 272.942 941 261.942 934 c 0
 235.942 919 231.942 915 182.942 889 c 0
 170.942 882 143.942 871 130.942 871 c 0
 115.942 871 110.942 883 122.942 893 c 0
 190.942 950 132.942 903 230.942 981 c 0
 250.942 997 256.942 1003 271.942 1003 c 0
 286.942 1003 292.942 997 312.942 981 c 0
 410.942 903 352.942 950 420.942 893 c 0
 432.942 883 427.942 870 412.942 870 c 0
 399.942 870 389.942 878 377.942 885 c 0
 328.942 911 307.942 919 281.942 934 c 0x0f
EndSplineSet
Refer: 526 7864 N 1 0 0 1 0 0 3
Validated: 1
EndChar
StartChar: uni1ED0
Encoding: 7888 7888 542
Width: 605
VWidth: 0
Flags: W
HStem: -15 37<242.335 386.997> 424 32<229.322 364.877> 504 201 944.269 72<497.32 606.041>
VStem: 66 85<119.755 310.96> 196 212 468 84<121.475 314.94>
LayerCount: 2
Fore
SplineSet
394 895.269 m 0
 385 893.269 372 890.269 360 893.269 c 0
 352 895.269 352 908.269 363 915.269 c 0
 432 959.269 464 979.269 527 1011.27 c 0
 545 1021.27 561 1025.27 579 1016.27 c 24
 600 1006.27 613 992.269 614 970.269 c 24
 614 954.269 596 947.269 582 944.269 c 0
 521 929.269 447 910.269 394 895.269 c 0
EndSplineSet
Refer: 148 212 N 1 0 0 1 0 0 3
Validated: 33
EndChar
StartChar: uni1ED2
Encoding: 7890 7890 544
Width: 605
VWidth: 0
Flags: W
HStem: -15 37<242.335 386.997> 424 32<229.322 364.877> 504 201 944.269 72<147.959 256.68>
VStem: 66 85<119.755 310.96> 196 212 468 84<121.475 314.94>
LayerCount: 2
Fore
SplineSet
360 895.269 m 0
 307 910.269 233 929.269 172 944.269 c 0
 158 947.269 140 954.269 140 970.269 c 24
 141 992.269 154 1006.27 175 1016.27 c 24
 193 1025.27 209 1021.27 227 1011.27 c 0
 290 979.269 322 959.269 391 915.269 c 0
 402 908.269 402 895.269 394 893.269 c 0
 382 890.269 369 893.269 360 895.269 c 0
EndSplineSet
Refer: 148 212 N 1 0 0 1 0 0 3
Validated: 33
EndChar
StartChar: uni1ED6
Encoding: 7894 7894 546
Width: 605
VWidth: 0
Flags: W
HStem: -15 37<242.335 386.997> 424 32<229.322 364.877> 504 201 935.977 63<299.722 484.662> 943.977 63<268.842 456.756>
VStem: 66 85<119.755 310.96> 196 212 468 84<121.475 314.94>
LayerCount: 2
Fore
SplineSet
216.989 929.977 m 0xef
 242.393 966.257 288.989 1006.98 303.989 1006.98 c 0xef
 328.989 1006.98 435.989 998.977 460.989 998.977 c 0
 475.989 998.977 500.989 1013.98 517.989 1035.98 c 0
 522.989 1042.98 540.838 1023.47 536.989 1017.98 c 4
 519.547 993.067 469.989 935.977 454.989 935.977 c 0xf7
 429.989 935.977 317.989 943.977 292.989 943.977 c 0
 277.989 943.977 253.989 929.977 237.989 911.977 c 0
 232.989 906.977 213.14 924.48 216.989 929.977 c 0xef
EndSplineSet
Refer: 148 212 N 1 0 0 1 0 0 3
Validated: 1
EndChar
StartChar: uni1EDA
Encoding: 7898 7898 550
Width: 783
VWidth: 0
Flags: W
HStem: -14 39<314.694 492.027> 625 39<291.968 474.205> 776.357 72<564.611 673.332>
VStem: 50 97<219.261 447.814> 626 97<206.698 451.269> 706 56<605.697 675.5>
LayerCount: 2
Fore
SplineSet
461.291 727.357 m 0xf0
 452.291 725.357 439.291 722.357 427.291 725.357 c 0
 419.291 727.357 419.291 740.357 430.291 747.357 c 0
 499.291 791.357 531.291 811.357 594.291 843.357 c 0
 612.291 853.357 628.291 857.357 646.291 848.357 c 24
 667.291 838.357 680.291 824.357 681.291 802.357 c 24
 681.291 786.357 663.291 779.357 649.291 776.357 c 0
 588.291 761.357 514.291 742.357 461.291 727.357 c 0xf0
EndSplineSet
Refer: 288 416 N 1 0 0 1 0 0 3
Validated: 1
EndChar
StartChar: uni1EDC
Encoding: 7900 7900 552
Width: 783
VWidth: 0
Flags: W
HStem: -14 39<314.694 492.027> 625 39<291.968 474.205> 776.357 72<215.25 323.971>
VStem: 50 97<219.261 447.814> 626 97<206.698 451.269> 706 56<605.697 675.5>
LayerCount: 2
Fore
SplineSet
427.291 727.357 m 0xf0
 374.291 742.357 300.291 761.357 239.291 776.357 c 0
 225.291 779.357 207.291 786.357 207.291 802.357 c 24
 208.291 824.357 221.291 838.357 242.291 848.357 c 24
 260.291 857.357 276.291 853.357 294.291 843.357 c 0
 357.291 811.357 389.291 791.357 458.291 747.357 c 0
 469.291 740.357 469.291 727.357 461.291 725.357 c 0
 449.291 722.357 436.291 725.357 427.291 727.357 c 0xf0
EndSplineSet
Refer: 288 416 N 1 0 0 1 0 0 3
Validated: 1
EndChar
StartChar: uni1EE0
Encoding: 7904 7904 554
Width: 783
VWidth: 0
Flags: W
HStem: -14 39<314.694 492.027> 625 39<291.968 474.205> 768.064 63<367.013 551.953> 776.064 63<336.133 524.047>
VStem: 50 97<219.261 447.814> 626 97<206.698 451.269> 706 56<605.697 675.5>
LayerCount: 2
Fore
SplineSet
284.28 762.064 m 0xd8
 309.684 798.345 356.28 839.064 371.28 839.064 c 0xd8
 396.28 839.064 503.28 831.064 528.28 831.064 c 0
 543.28 831.064 568.28 846.064 585.28 868.064 c 0
 590.28 875.064 608.129 855.562 604.28 850.064 c 4
 586.838 825.154 537.28 768.064 522.28 768.064 c 0xe8
 497.28 768.064 385.28 776.064 360.28 776.064 c 0
 345.28 776.064 321.28 762.064 305.28 744.064 c 0
 300.28 739.064 280.431 756.567 284.28 762.064 c 0xd8
EndSplineSet
Refer: 288 416 N 1 0 0 1 0 0 3
Validated: 1
EndChar
StartChar: Ygrave
Encoding: 7922 7922 560
Width: 494
VWidth: 0
Flags: W
HStem: -4 27<127.655 172.989 302.406 347.107> 426 24<23.6411 60.8134 166.547 201.245 302.585 337.089 417.265 457.175> 754 72<171.63 280.351>
VStem: 200 75<47.4598 248.634>
LayerCount: 2
Fore
SplineSet
383.671 705 m 0
 330.671 720 256.671 739 195.671 754 c 0
 181.671 757 163.671 764 163.671 780 c 24
 164.671 802 177.671 816 198.671 826 c 24
 216.671 835 232.671 831 250.671 821 c 0
 313.671 789 345.671 769 414.671 725 c 0
 425.671 718 425.671 705 417.671 703 c 0
 405.671 700 392.671 703 383.671 705 c 0
EndSplineSet
Refer: 49 89 N 1 0 0 1 0 0 3
Validated: 33
EndChar
StartChar: uni1EF8
Encoding: 7928 7928 564
Width: 494
VWidth: 0
Flags: W
HStem: -4 27<127.655 172.989 302.406 347.107> 426 24<23.6411 60.8134 166.547 201.245 302.585 337.089 417.265 457.175> 737 63<237.404 422.344> 745 63<206.524 394.438>
VStem: 200 75<47.4598 248.634>
LayerCount: 2
Fore
SplineSet
154.671 731 m 0xd8
 180.075 767.28 226.671 808 241.671 808 c 0xd8
 266.671 808 373.671 800 398.671 800 c 0
 413.671 800 438.671 815 455.671 837 c 0
 460.671 844 478.52 824.497 474.671 819 c 4
 457.229 794.09 407.671 737 392.671 737 c 0xe8
 367.671 737 255.671 745 230.671 745 c 0
 215.671 745 191.671 731 175.671 713 c 0
 170.671 708 150.822 725.503 154.671 731 c 0xd8
EndSplineSet
Refer: 49 89 N 1 0 0 1 0 0 3
Validated: 1
EndChar
StartChar: uni1FB9
Encoding: 8121 8121 737
Width: 555
VWidth: 0
Flags: W
HStem: -3 24<32.5977 66.9577 182.452 212.952 498.912 529.715> 139 27<198.819 333.7> 443 20<310.5 314> 730 54<231.507 521.526>
LayerCount: 2
Fore
SplineSet
251.839 784 m 30
 514.839 784 l 30
 522.29 784 530.195 777.068 527.839 770 c 28
 521.598 751.276 516.575 730 496.839 730 c 30
 241.839 730 l 30
 234.647 730 227.839 736 227.839 742 c 4
 227.839 751 232.974 784 251.839 784 c 30
EndSplineSet
Refer: 631 913 N 1 0 0 1 0 0 3
Validated: 1
EndChar
StartChar: uni1FD8
Encoding: 8152 8152 746
Width: 320
VWidth: 0
Flags: W
HStem: -3 24<54.3203 98.3583 234.049 277.734> 429 23<63.6897 93.4601 236.74 267.915> 724 70<104.666 258.24>
VStem: 31.4531 300<790 867> 128 75<45.4878 409.42>
LayerCount: 2
Fore
SplineSet
63.4531 857 m 0xf0
 75.4531 835 111.453 794 181.453 794 c 0
 251.453 794 287.453 835 299.453 857 c 0
 304.453 866 311.453 878 321.453 878 c 0
 331.453 878 331.453 867 331.453 854 c 0
 331.453 790 261.453 724 181.453 724 c 0
 101.453 724 31.4531 779 31.4531 854 c 0
 31.4531 867 31.4531 878 41.4531 878 c 0
 51.4531 878 58.4531 866 63.4531 857 c 0xf0
EndSplineSet
Refer: 636 921 N 1 0 0 1 0 0 3
Validated: 1
EndChar
StartChar: uni1FD9
Encoding: 8153 8153 747
Width: 320
VWidth: 0
Flags: W
HStem: -3 24<54.3203 98.3583 234.049 277.734> 429 23<63.6897 93.4601 236.74 267.915> 724 54<35.0472 325.066>
VStem: 31.3789 300 128 75<45.4878 409.42>
LayerCount: 2
Fore
SplineSet
55.3789 778 m 30xf0
 318.379 778 l 30
 325.83 778 333.735 771.068 331.379 764 c 28
 325.138 745.276 320.115 724 300.379 724 c 30
 45.3789 724 l 30
 38.1875 724 31.3789 730 31.3789 736 c 4
 31.3789 745 36.5137 778 55.3789 778 c 30xf0
EndSplineSet
Refer: 636 921 N 1 0 0 1 0 0 3
Validated: 1
EndChar
StartChar: emdash
Encoding: 8212 8212 105
Width: 950
VWidth: 0
Flags: W
HStem: 185 54<53.6248 893.825>
LayerCount: 2
Fore
SplineSet
74 239 m 26
 887 239 l 26
 894 239 902 232 900 225 c 24
 894 206 889 185 869 185 c 26
 64 185 l 26
 57 185 50 191 50 197 c 0
 50 206 55 239 74 239 c 26
EndSplineSet
Validated: 1
EndChar
StartChar: quoteleft
Encoding: 8216 8216 59
Width: 240
Flags: W
HStem: 426 88<99.6124 169.557>
VStem: 40 52<493.813 602.906>
LayerCount: 2
Fore
SplineSet
131 514 m 0
 160 511 178 494 178 472 c 0
 178 445 152 426 123 426 c 0
 75 426 40 467 40 523 c 0
 40 624 131 688 182 690 c 0
 206 691 209 671 188 667 c 0
 145 658 92 628 92 558 c 0
 92 542 109 516 131 514 c 0
EndSplineSet
Validated: 1
EndChar
StartChar: quoteright
Encoding: 8217 8217 60
Width: 240
Flags: W
HStem: 602 88<72.4428 142.388>
VStem: 150 52<513.094 622.187>
LayerCount: 2
Fore
SplineSet
111 602 m 0
 82 605 64 622 64 644 c 0
 64 671 90 690 119 690 c 0
 167 690 202 649 202 593 c 0
 202 492 111 428 60 426 c 0
 36 425 33 445 54 449 c 0
 97 458 150 488 150 558 c 0
 150 574 133 600 111 602 c 0
EndSplineSet
Validated: 1
EndChar
StartChar: guilsinglleft
Encoding: 8249 8249 119
Width: 464
VWidth: 0
Flags: W
LayerCount: 2
Fore
SplineSet
207 217 m 0
 199 211 199 209 207 203 c 0
 251 169 303 125 359 40 c 0
 366 29 359 17 351 19 c 0
 339 22 329 31 323 37 c 0
 254 104 177 155 118 182 c 0
 105 188 95 213 103 218 c 0
 205 279 260 316 329 382 c 0
 335 388 345 397 357 400 c 0
 365 402 366 387 359 376 c 0
 303 291 251 251 207 217 c 0
EndSplineSet
Validated: 33
EndChar
StartChar: uni2071
Encoding: 8305 8305 797
Width: 156
VWidth: 0
Flags: W
HStem: 273 25<7.52148 49.1406 107.172 150.479> 589 69<42.0938 108.891>
VStem: 39 73<592.656 654.322> 52 52<300.875 466.601>
LayerCount: 2
Fore
SplineSet
39 623 m 0xe0
 39 641 57 658 75 658 c 0
 94 658 112 641 112 623 c 0
 112 606 94 589 75 589 c 0
 57 589 39 606 39 623 c 0xe0
104 320 m 0xd0
 104 304 123 302 136 298 c 0
 143 296 151 289 151 283 c 0
 151 277 139 273 136 273 c 0
 111 273 100 273 77 273 c 4
 54 273 47 273 22 273 c 0
 19 273 7 277 7 283 c 0
 7 289 15 296 22 298 c 0
 35 302 52 304 52 320 c 0
 52 340 52 395.98 52 426 c 0xd0
 52 447 45 465 23 469 c 8
 13.0166 470.815 12.1221 492.676 22 495 c 16
 56 503 70 517 92 530 c 0
 95 531 112 530 112 527 c 0xe0
 110 513 104 486.01 104 434 c 0
 104 404 104 340 104 320 c 0xd0
EndSplineSet
Validated: 1
EndChar
StartChar: uni2074
Encoding: 8308 8308 798
Width: 300
VWidth: 0
Flags: W
HStem: 539 41<71 169 221.047 287.002>
VStem: 169 52<438.983 536.925 580.046 697.092>
LayerCount: 2
Fore
SplineSet
161 580 m 4
 165 580 169 582 169 585 c 4
 169 626 169 641 169 696 c 4
 169 698 165 699 163 697 c 28
 125 655 99 622 71 585 c 4
 69 583 69 580 71 580 c 4
 113 580 115 580 161 580 c 4
9 541 m 4
 23 560 29 567 37 578 c 4
 75 627 97 651 139 705 c 4
 151 720 174 745 197 770 c 28
 203 775 209 781 213 782 c 4
 217 783 219 777 219 774 c 4
 219 748 220 657 221 583 c 28
 222 581 223 579 225 579 c 28
 247 578 261 579 283 580 c 4
 287 580 291 578 291 574 c 28
 288 560 281 539 277 539 c 4
 261 539 241 541 229 539 c 4
 227 538 221 536 221 535 c 4
 221 500 221 493 221 459 c 4
 221 444 183 432 179 432 c 4
 173 432 169 434 169 440 c 4
 169 481 169 513 169 532 c 4
 169 536 161 537 161 537 c 4
 111 537 77 534 15 533 c 4
 11 533 7 539 9 541 c 4
EndSplineSet
Validated: 33
EndChar

StartChar: uni2079
Encoding: 8313 8313 803
Width: 300
VWidth: 0
Flags: W
HStem: 423 24<34.4944 68.3894> 588 40<94.7533 167.872> 755 28<102.703 179.777>
VStem: 26 55<638.805 726.297> 213 60<579.263 730.307>
LayerCount: 2
Fore
SplineSet
157 783 m 4
 220 783 273 731 273 661 c 4
 273 592 230 538 195 506 c 4
 159 474 88 429 44 423 c 4
 40 422 34 426.006 34 431 c 28
 34 438.358 39 446 44 447 c 4
 81 458 136 507 163 541 c 4
 187 569 213 600 213 668 c 4
 213 718 183 755 136 755 c 4
 106 755 81 726.5 81 687 c 4
 81 654 102 628 137 628 c 4
 152 628 156 630 164 633 c 4
 172 636 180 646 187 649 c 4
 190 651 194 632 192 630 c 4
 188 622 175 613 168 608 c 4
 158 601 136 588 112 588 c 4
 67 588 26 620 26 664 c 4
 26 718 78 783 157 783 c 4
EndSplineSet
Validated: 1
EndChar

StartChar: uni2082
Encoding: 8322 8322 811
Width: 300
VWidth: 0
Flags: W
HStem: -165.5 52<100.824 234.985> 110.5 54<76.9321 164.064>
VStem: 178 56<12.0772 96.8317>
LayerCount: 2
Fore
SplineSet
42 72.5 m 0
 40 68.5 37 64.5 33 66.5 c 24
 28 68.5 26 72.5 26 77.5 c 0
 26 97.5 73 164.5 143 164.5 c 0
 194 164.5 234 122.5 234 71.5 c 16
 234 37.5 217 17.5 200 -7.5 c 0
 178 -40.5 108 -99.5 101 -107.5 c 0
 97 -111.5 109 -113.5 113 -113.5 c 0
 134 -112.5 142 -113.5 182 -113.5 c 0
 212 -113.5 241 -93.5 256 -63.5 c 0
 258 -58.5 265 -54.5 271 -55.5 c 24
 275 -55.5 275 -61.5 274 -64.5 c 0
 261 -100.5 253 -124.5 247 -155.5 c 0
 245 -169.5 239 -169.5 235 -168.5 c 0
 184 -165.5 184 -165.5 151 -165.5 c 28
 103 -165.5 79 -165.5 28 -167.5 c 0
 23 -168.5 21 -158.5 28 -151.5 c 0
 41 -138.5 58 -120.5 67 -111.5 c 0
 83 -95.5 177 -17.5 178 45.5 c 0
 179 83.5 152 110.5 121 110.5 c 0
 85 110.5 70 102.5 42 72.5 c 0
EndSplineSet
Validated: 33
EndChar
StartChar: uni2083
Encoding: 8323 8323 812
Width: 300
VWidth: 0
Flags: W
HStem: -179 34<86.013 176.221> -25 11<84 89.8789> -18 32<135 185> 110 47<93.8902 180.939>
VStem: 188 56<44.6016 102.038> 202 52<-115.877 -35.1481>
LayerCount: 2
Fore
SplineSet
188 73 m 20xd8
 188 95 157 111 139 110 c 4
 117 109 93 100 69 80 c 4
 66 77 63 73 59 74 c 28
 55 76 51 81 53 85 c 4
 69 116 103 157 156 157 c 4
 207 156 244 137 244 86 c 4xd8
 244 61 221 37 185 19 c 4
 181 17 181 14 185 14 c 12
 222 12 254 -15 254 -52 c 20
 254 -133 166 -179 113 -179 c 4
 87 -179 75 -178 58 -167 c 4
 49 -161 47 -151 47 -146 c 4
 47 -138 56 -118 65 -118 c 4
 71 -118 76 -121 78 -123 c 4
 90 -131 113 -145 143 -145 c 4
 156 -145 202 -141 202 -83 c 12
 202 -47 173 -18 135 -18 c 4xb4
 125 -18 109 -22 98 -25 c 4
 92 -27 79 -19 84 -14 c 28
 99 1 120 2 133 11 c 4
 163 31 188 41 188 73 c 20xd8
EndSplineSet
Validated: 33
EndChar

StartChar: uni2084
Encoding: 8324 8324 813
Width: 300
VWidth: 0
Flags: W
HStem: -179 21G<176.5 181> -72 41<70.9531 170 222 287.821>
VStem: 170 52<-171.818 -74.0007 -30.9637 86.0916>
LayerCount: 2
Fore
SplineSet
162 -31 m 4
 165 -31 170 -29 170 -26 c 4
 170 15 170 30 170 85 c 4
 170 87 166 88 164 86 c 28
 126 44 100 11 71 -26 c 4
 70 -28 69 -31 71 -31 c 4
 114 -31 116 -31 162 -31 c 4
9 -70 m 4
 24 -51 29 -44 37 -33 c 4
 76 16 97 40 140 94 c 4
 152 109 174.625 134.344 198 159 c 28
 203.154 164.438 209 170 213 171 c 4
 217 172 220 166 220 163 c 4
 220 137 220.091 46.4697 222 -28 c 28
 222.05 -29.9492 223.053 -31.9062 225 -32 c 28
 247.986 -33.1123 262 -32 284 -31 c 4
 287 -31 291.521 -33.4424 291 -37 c 28
 288.892 -51.4072 282 -72 278 -72 c 4
 262 -72 241 -70 230 -72 c 4
 227 -73 222 -75 222 -76 c 4
 222 -111 222 -118 222 -152 c 4
 222 -167 183 -179 179 -179 c 4
 174 -179 170 -177 170 -171 c 4
 170 -130 170 -98 170 -79 c 4
 170 -75 162 -74 161 -74 c 4
 112 -74 78 -77 15 -78 c 4
 11 -78 7 -72 9 -70 c 4
EndSplineSet
Validated: 33
EndChar
StartChar: uni2085
Encoding: 8325 8325 814
Width: 300
VWidth: 0
Flags: W
HStem: -184 25<59.468 141.742> 107 54<87.8462 214.136>
VStem: 52 35<33 105.328> 188 60<-115.347 -23.8601>
LayerCount: 2
Fore
SplineSet
248 -47 m 4
 248 -105 213 -137 177 -157 c 4
 155 -169 115.527 -184 74 -184 c 20
 64 -184 59 -179 59 -175 c 4
 59 -169 63 -159 78 -159 c 4
 133.927 -159 188 -139 188 -67 c 4
 188 -5 103 3 67 15 c 4
 57 18 52 30 52 36 c 4
 53 60 69.5 107.5 76 123 c 4
 81.0273 134.989 87 144 101 147 c 4
 141 156 171.456 159.507 217 161 c 28
 221.546 161.149 223 156 223 151 c 4
 223 147 212 113 193 112 c 4
 159 108 129 110 109 107 c 4
 106 107 96 105 93 97 c 4
 89 90 87 86 87 79 c 4
 87 75 93 69 101 67 c 4
 173 47 248 39 248 -47 c 4
EndSplineSet
Validated: 1
EndChar
StartChar: uni2086
Encoding: 8326 8326 815
Width: 300
VWidth: 0
Flags: W
HStem: -182 20<129.606 192.025> -10.5 42.5<140.437 209.978>
VStem: 27 62<-136.204 24.4448> 221 52<-120.135 -18.2771>
LayerCount: 2
Fore
SplineSet
221 -78 m 4
 221 -45 209 -10.5 176 -10.5 c 4
 161 -10.5 148 -13.5 137 -22 c 4
 131.934 -25.915 127 -29.5 121.5 -29.5 c 4
 116.5 -29.5 114.5 -24.5 114.5 -19.5 c 4
 114.5 -11.5 117.448 -6.82617 123.5 -1.5 c 4
 136 9.5 171 32 193 32 c 4
 257 32 273 -6 273 -46 c 4
 273 -104 229 -182 145 -182 c 4
 66 -182 27 -135 27 -70 c 4
 26 13 73 67 95 88 c 4
 125 116 175 148 248 166 c 4
 252 166 257.946 160.6 256 156 c 28
 252.226 147.078 241 142 237 140 c 4
 183 119 89 62 89 -70 c 4
 89 -130 124 -162 163 -162 c 4
 200 -162 221 -133.5 221 -78 c 4
EndSplineSet
Validated: 33
EndChar
StartChar: minus
Encoding: 8722 8722 871
Width: 600
VWidth: 0
Flags: W
HStem: 222 60<53.8933 543.031>
LayerCount: 2
Fore
SplineSet
64 222 m 10
 57 222 50 228 50 234 c 0
 50 243 53 282 74 282 c 18
 537 282 l 10
 544 282 552 275 550 268 c 24
 544 247 541 222 519 222 c 18
 64 222 l 10
EndSplineSet
Validated: 1
EndChar
StartChar: uni24A1
Encoding: 9377 9377 932
Width: 938
VWidth: 0
HStem: -3 27<306.002 356.219 456.575 505.998> 352 48<441.012 565.401> 352 24<312.561 344.812> 665 41<471.174 547.962> 684 20<683.5 694>
VStem: 40 60<122.186 412.903> 371 70<33.1691 350 400.148 588.309> 828 60<134.229 415.813>
LayerCount: 2
Fore
SplineSet
513 665 m 4xb7
 491 665 444 657 442 570 c 4
 441.563 551.005 441 438 441 422 c 4
 440 404 453 400 466 400 c 14
 569 400 l 22
 579 400 570 352 560 352 c 14
 481 352 l 22xd7
 435 352 441 341 441 326 c 6
 441 70 l 6
 441 40.9961 464 30.3633 484 24 c 4
 495 20.5 507 16.5 507 6 c 4
 507 -4 488.604 -3 484 -3 c 4
 445 -3 441 2 406 2 c 4
 371 2 367 -3 328 -3 c 4
 323.396 -3 305 -4 305 6 c 4
 305 16.5 317 20.5 328 24 c 4
 348 30.3633 371 39.9961 371 69 c 6
 371 350 l 5
 358 350 340 350 319 352 c 4
 313 353 304 374 312 376 c 4
 342 384 352 392 371 402 c 5
 370.794 462.069 371 432.346 371 472 c 4
 371 612 452 706 539 706 c 4
 560 706 585.27 700.396 592 693 c 4
 598.73 685.604 613 675.974 613 657 c 4
 613 640 586 625 573 625 c 4
 556 625 543 665 513 665 c 4xb7
EndSplineSet
Refer: 109 41 N 1 0 0 1 622 0 2
Refer: 108 40 N 1 0 0 1 0 0 2
Validated: 33
EndChar

StartChar: Udieresis.deu
Encoding: 65538 -1 986
Width: 563
VWidth: 0
Flags: W
HStem: -13 35<238.389 374.945> 425 25<35.0211 68.4721 167.691 200.01 380.363 415.874 499.32 542.199> 610 100<282.078 360.674 414.078 492.674>
VStem: 80 75<101.856 419.064> 271.376 100<620.702 699.298> 403.376 100<620.702 699.298> 431 44<89.461 410.762>
LayerCount: 2
Fore
SplineSet
453.376 710 m 0xfc
 478.376 710 503.376 685 503.376 660 c 0
 503.376 635 478.376 610 453.376 610 c 0
 428.376 610 403.376 635 403.376 660 c 0
 403.376 685 428.376 710 453.376 710 c 0xfc
321.376 710 m 0
 346.376 710 371.376 685 371.376 660 c 0
 371.376 635 346.376 610 321.376 610 c 0
 296.376 610 271.376 635 271.376 660 c 0
 271.376 685 296.376 710 321.376 710 c 0
EndSplineSet
Refer: 48 85 S 1 0 0 1 0 0 3
Validated: 1
EndChar

StartChar: cedilla.cap
Encoding: 65550 -1 1060
Width: 277
VWidth: 0
Flags: W
HStem: -275 53<65.7504 162.871>
VStem: 173 53<-216.671 -138.332>
LayerCount: 2
Fore
SplineSet
226 -159 m 0
 226 -227 142 -275 97 -275 c 0
 77 -275 68 -275 59 -262 c 24
 49 -249 52 -237 57 -221 c 0
 59 -214 65 -207 71 -210 c 0
 94 -220 118 -222 131 -222 c 0
 148 -222 173 -212 173 -183 c 0
 173 -159 161 -133 126 -131 c 0
 119 -131 110 -130 99 -132 c 0
 92 -133 80 -129 76 -122 c 0
 73 -117 76 -105 80 -100 c 2
 160 8 l 25
 191 8 l 25
 150 -54 l 2
 145 -61 155 -68 160 -70 c 0
 188 -82 226 -112 226 -159 c 0
EndSplineSet
Validated: 33
EndChar

StartChar: eight.lnum
Encoding: 65547 -1 1049
Width: 452
VWidth: 0
Flags: W
HStem: -14 29<187.219 285.721> 606 24<188.883 276.69>
VStem: 45 80<71.8922 211.84> 60 77<447.632 561.233> 324 77<433.513 564.921> 339 80<86.4974 188.809>
LayerCount: 2
Fore
SplineSet
268 358 m 0xd8
 314 396 324 443.65 324 505 c 16
 324 556 288 606 237 606 c 8
 185.562 606 137 569 137 520 c 8
 137 443.011 184 418 254 361 c 0
 258 358 264 355 268 358 c 0xd8
290 337 m 0
 365 288 419 248 419 167 c 8
 419 63 320 -14 222 -14 c 8
 130 -14 45 49 45 141 c 16xe4
 45 229 128 274 179 302 c 0
 188 307 184 308 176 315 c 0
 116 366 60 415 60 500 c 16
 60 582 155 630 242 630 c 16
 322 630 401 579 401 498 c 16
 401 450 371 420 348 400 c 0
 329 384 318 375 295 358 c 0
 278 346 279 344 290 337 c 0
189 284 m 0
 146 249 125 221 125 157 c 8
 125 86.708 165.708 15 236 15 c 16
 295 15 339 66.9434 339 126 c 20
 339 188 279 240 221 280 c 0
 208 289 201 294 189 284 c 0
EndSplineSet
Validated: 33
Substitution2: "'tnum' Tabular Numbers lookup 7 subtable" eight.tablining
Substitution2: "'onum' Minuskelziffern lookup 6 subtable" eight
EndChar

StartChar: two.taboldstyle
Encoding: 65557 -1 1078
Width: 475
VWidth: 0
Flags: W
HStem: 0 65<147.73 379.557> 345 68<118.764 223.381>
VStem: 242 68<218.815 324.745>
LayerCount: 2
Fore
SplineSet
61 297 m 4
 57 293 54 288 49 290 c 28
 43 292 41 298 41 304 c 4
 41 313 88 413 206 413 c 4
 270 413 310 353 310 290 c 4
 310 258 293 220 269 191 c 4
 239 155 158 80 148 73 c 4
 142 69 151 65 157 65 c 4
 183 66 271 65 320 65 c 4
 358 65 394 90 413 128 c 4
 416 133 424 139 432 138 c 28
 437 138 437 131 435 126 c 4
 419 81 409 52 402 12 c 4
 399 -5 392 -4 387 -4 c 4
 323 0 278 0 208 0 c 28
 144 0 109 0 45 -3 c 4
 39 -3 37 9 45 17 c 4
 62 34 90 61 106 74 c 4
 128 92 240 185 242 264 c 4
 243 312 216 345 177 345 c 4
 132 345 95 335 61 297 c 4
EndSplineSet
Validated: 33
Substitution2: "'pnum' Proportionalziffern lookup 8 subtable" two
Substitution2: "'lnum' Lining Figures lookup 5 subtable" two.tablining
EndChar
